<svg width="400" height="400" viewBox="0 0 400 400" fill="none" xmlns="http://www.w3.org/2000/svg">
<g clip-path="url(#clip0_45_1208)">
<path d="M79.4018 334.741L86.0352 342.225L93.5184 335.591L86.8851 328.108L79.4018 334.741Z" fill="#48240A" stroke="black" stroke-opacity="0.3"/>
<path d="M72.7685 327.258L79.4019 334.741L86.8851 328.108L80.2518 320.625L72.7685 327.258Z" fill="#48240A" stroke="black" stroke-opacity="0.3"/>
<path d="M200 0H190V10H200V0Z" fill="#48240A" stroke="black" stroke-opacity="0.3"/>
<path d="M86.885 328.108L93.5183 335.591L101.002 328.958L94.3682 321.475L86.885 328.108Z" fill="#769212" stroke="black" stroke-opacity="0.3"/>
<path d="M80.2517 320.625L86.885 328.108L94.3683 321.475L87.7349 313.992L80.2517 320.625Z" fill="#86A114" stroke="black" stroke-opacity="0.3"/>
<path d="M73.6184 313.142L80.2517 320.625L87.7349 313.992L81.1016 306.508L73.6184 313.142Z" fill="#808000" stroke="black" stroke-opacity="0.3"/>
<path d="M66.9851 305.658L73.6184 313.142L81.1016 306.508L74.4683 299.025L66.9851 305.658Z" fill="#48240A" stroke="black" stroke-opacity="0.3"/>
<path d="M114.268 343.924L120.902 351.408L128.385 344.774L121.752 337.291L114.268 343.924Z" fill="#48240A" stroke="black" stroke-opacity="0.3"/>
<path d="M107.635 336.441L114.268 343.924L121.752 337.291L115.118 329.808L107.635 336.441Z" fill="#48240A" stroke="black" stroke-opacity="0.3"/>
<path d="M101.002 328.958L107.635 336.441L115.118 329.808L108.485 322.325L101.002 328.958Z" fill="#67841E" stroke="black" stroke-opacity="0.3"/>
<path d="M94.3681 321.475L101.001 328.958L108.485 322.325L101.851 314.841L94.3681 321.475Z" fill="#6E8C11" stroke="black" stroke-opacity="0.3"/>
<path d="M87.7348 313.992L94.3682 321.475L101.851 314.841L95.2181 307.358L87.7348 313.992Z" fill="#7C9C15" stroke="black" stroke-opacity="0.3"/>
<path d="M81.1015 306.508L87.7349 313.992L95.2181 307.358L88.5848 299.875L81.1015 306.508Z" fill="#8DA843" stroke="black" stroke-opacity="0.3"/>
<path d="M74.4682 299.025L81.1016 306.508L88.5848 299.875L81.9515 292.392L74.4682 299.025Z" fill="#718E11" stroke="black" stroke-opacity="0.3"/>
<path d="M67.8349 291.542L74.4683 299.025L81.9515 292.392L75.3182 284.908L67.8349 291.542Z" fill="#48240A" stroke="black" stroke-opacity="0.3"/>
<path d="M54.5683 276.575L61.2017 284.059L68.6849 277.425L62.0516 269.942L54.5683 276.575Z" fill="#48240A" stroke="black" stroke-opacity="0.3"/>
<path d="M47.935 269.092L54.5684 276.575L62.0516 269.942L55.4183 262.459L47.935 269.092Z" fill="#48240A" stroke="black" stroke-opacity="0.3"/>
<path d="M128.385 344.774L135.018 352.258L142.501 345.624L135.868 338.141L128.385 344.774Z" fill="#48240A" stroke="black" stroke-opacity="0.3"/>
<path d="M121.751 337.291L128.385 344.774L135.868 338.141L129.235 330.658L121.751 337.291Z" fill="#536C06" stroke="black" stroke-opacity="0.3"/>
<path d="M115.118 329.808L121.751 337.291L129.235 330.658L122.601 323.175L115.118 329.808Z" fill="#59710C" stroke="black" stroke-opacity="0.3"/>
<path d="M108.485 322.325L115.118 329.808L122.601 323.175L115.968 315.691L108.485 322.325Z" fill="#6F8B1B" stroke="black" stroke-opacity="0.3"/>
<path d="M101.852 314.841L108.485 322.325L115.968 315.691L109.335 308.208L101.852 314.841Z" fill="#5E7C0F" stroke="black" stroke-opacity="0.3"/>
<path d="M95.2182 307.358L101.852 314.841L109.335 308.208L102.701 300.725L95.2182 307.358Z" fill="#688512" stroke="black" stroke-opacity="0.3"/>
<path d="M88.5849 299.875L95.2183 307.358L102.702 300.725L96.0682 293.242L88.5849 299.875Z" fill="#708B29" stroke="black" stroke-opacity="0.3"/>
<path d="M81.9514 292.392L88.5847 299.875L96.068 293.242L89.4346 285.758L81.9514 292.392Z" fill="#67860E" stroke="black" stroke-opacity="0.3"/>
<path d="M75.3181 284.908L81.9514 292.392L89.4347 285.758L82.8013 278.275L75.3181 284.908Z" fill="#809E32" stroke="black" stroke-opacity="0.3"/>
<path d="M68.6848 277.425L75.3181 284.908L82.8014 278.275L76.168 270.792L68.6848 277.425Z" fill="#48240A" stroke="black" stroke-opacity="0.3"/>
<path d="M62.0515 269.942L68.6848 277.425L76.1681 270.792L69.5347 263.309L62.0515 269.942Z" fill="#96B151" stroke="black" stroke-opacity="0.3"/>
<path d="M55.4182 262.459L62.0515 269.942L69.5348 263.309L62.9014 255.825L55.4182 262.459Z" fill="#3A5704" stroke="black" stroke-opacity="0.3"/>
<path d="M48.7849 254.975L55.4182 262.459L62.9015 255.825L56.2681 248.342L48.7849 254.975Z" fill="#48240A" stroke="black" stroke-opacity="0.3"/>
<path d="M135.868 338.141L142.501 345.624L149.985 338.991L143.351 331.508L135.868 338.141Z" fill="#48240A" stroke="black" stroke-opacity="0.3"/>
<path d="M129.235 330.658L135.868 338.141L143.351 331.508L136.718 324.024L129.235 330.658Z" fill="#516B07" stroke="black" stroke-opacity="0.3"/>
<path d="M122.601 323.175L129.235 330.658L136.718 324.024L130.085 316.541L122.601 323.175Z" fill="#57730F" stroke="black" stroke-opacity="0.3"/>
<path d="M115.968 315.691L122.601 323.175L130.085 316.541L123.451 309.058L115.968 315.691Z" fill="#67841D" stroke="black" stroke-opacity="0.3"/>
<path d="M109.335 308.208L115.968 315.691L123.451 309.058L116.818 301.575L109.335 308.208Z" fill="#5A7814" stroke="black" stroke-opacity="0.3"/>
<path d="M102.701 300.725L109.335 308.208L116.818 301.575L110.185 294.092L102.701 300.725Z" fill="#5F7B11" stroke="black" stroke-opacity="0.3"/>
<path d="M96.0681 293.242L102.701 300.725L110.185 294.092L103.551 286.608L96.0681 293.242Z" fill="#5A7909" stroke="black" stroke-opacity="0.3"/>
<path d="M89.4348 285.758L96.0681 293.242L103.551 286.608L96.918 279.125L89.4348 285.758Z" fill="#5F7C0C" stroke="black" stroke-opacity="0.3"/>
<path d="M82.8015 278.275L89.4348 285.758L96.9181 279.125L90.2847 271.642L82.8015 278.275Z" fill="#7B9B26" stroke="black" stroke-opacity="0.3"/>
<path d="M76.1679 270.792L82.8013 278.275L90.2845 271.642L83.6512 264.159L76.1679 270.792Z" fill="#6A8D12" stroke="black" stroke-opacity="0.3"/>
<path d="M69.5346 263.309L76.168 270.792L83.6512 264.159L77.0179 256.675L69.5346 263.309Z" fill="#789924" stroke="black" stroke-opacity="0.3"/>
<path d="M62.9013 255.825L69.5347 263.309L77.0179 256.675L70.3846 249.192L62.9013 255.825Z" fill="#82A22F" stroke="black" stroke-opacity="0.3"/>
<path d="M56.268 248.342L62.9014 255.825L70.3846 249.192L63.7513 241.709L56.268 248.342Z" fill="#82A01E" stroke="black" stroke-opacity="0.3"/>
<path d="M156.618 346.474L163.251 353.957L170.734 347.324L164.101 339.841L156.618 346.474Z" fill="#48240A" stroke="black" stroke-opacity="0.3"/>
<path d="M149.985 338.991L156.618 346.474L164.101 339.841L157.468 332.358L149.985 338.991Z" fill="#48240A" stroke="black" stroke-opacity="0.3"/>
<path d="M143.351 331.508L149.985 338.991L157.468 332.358L150.835 324.874L143.351 331.508Z" fill="#48240A" stroke="black" stroke-opacity="0.3"/>
<path d="M136.718 324.024L143.351 331.508L150.835 324.874L144.201 317.391L136.718 324.024Z" fill="#567616" stroke="black" stroke-opacity="0.3"/>
<path d="M130.085 316.541L136.718 324.024L144.201 317.391L137.568 309.908L130.085 316.541Z" fill="#577512" stroke="black" stroke-opacity="0.3"/>
<path d="M123.451 309.058L130.085 316.541L137.568 309.908L130.935 302.425L123.451 309.058Z" fill="#607F17" stroke="black" stroke-opacity="0.3"/>
<path d="M116.818 301.575L123.451 309.058L130.934 302.425L124.301 294.941L116.818 301.575Z" fill="#6D8C26" stroke="black" stroke-opacity="0.3"/>
<path d="M110.185 294.092L116.818 301.575L124.301 294.941L117.668 287.458L110.185 294.092Z" fill="#6A8420" stroke="black" stroke-opacity="0.3"/>
<path d="M103.551 286.608L110.185 294.092L117.668 287.458L111.034 279.975L103.551 286.608Z" fill="#678517" stroke="black" stroke-opacity="0.3"/>
<path d="M96.9179 279.125L103.551 286.608L111.035 279.975L104.401 272.492L96.9179 279.125Z" fill="#698715" stroke="black" stroke-opacity="0.3"/>
<path d="M90.2846 271.642L96.918 279.125L104.401 272.492L97.7679 265.008L90.2846 271.642Z" fill="#6A8B14" stroke="black" stroke-opacity="0.3"/>
<path d="M83.6513 264.159L90.2847 271.642L97.7679 265.008L91.1346 257.525L83.6513 264.159Z" fill="#58790C" stroke="black" stroke-opacity="0.3"/>
<path d="M77.018 256.675L83.6514 264.159L91.1346 257.525L84.5013 250.042L77.018 256.675Z" fill="#5B7D0D" stroke="black" stroke-opacity="0.3"/>
<path d="M70.3847 249.192L77.0181 256.675L84.5013 250.042L77.868 242.559L70.3847 249.192Z" fill="#6C8E16" stroke="black" stroke-opacity="0.3"/>
<path d="M63.7512 241.709L70.3845 249.192L77.8678 242.559L71.2344 235.076L63.7512 241.709Z" fill="#78991B" stroke="black" stroke-opacity="0.3"/>
<path d="M57.1179 234.226L63.7512 241.709L71.2345 235.075L64.6011 227.592L57.1179 234.226Z" fill="#48240A" stroke="black" stroke-opacity="0.3"/>
<path d="M177.368 354.807L184.001 362.291L191.484 355.657L184.851 348.174L177.368 354.807Z" fill="#48240A" stroke="black" stroke-opacity="0.3"/>
<path d="M170.735 347.324L177.368 354.807L184.851 348.174L178.218 340.691L170.735 347.324Z" fill="#9DB162" stroke="black" stroke-opacity="0.3"/>
<path d="M164.101 339.841L170.735 347.324L178.218 340.691L171.585 333.208L164.101 339.841Z" fill="#779735" stroke="black" stroke-opacity="0.3"/>
<path d="M157.468 332.358L164.101 339.841L171.584 333.208L164.951 325.724L157.468 332.358Z" fill="#8AAB33" stroke="black" stroke-opacity="0.3"/>
<path d="M150.834 324.874L157.468 332.358L164.951 325.724L158.318 318.241L150.834 324.874Z" fill="#48240A" stroke="black" stroke-opacity="0.3"/>
<path d="M144.201 317.391L150.834 324.874L158.318 318.241L151.684 310.758L144.201 317.391Z" fill="#7D9A43" stroke="black" stroke-opacity="0.3"/>
<path d="M137.568 309.908L144.201 317.391L151.684 310.758L145.051 303.275L137.568 309.908Z" fill="#658325" stroke="black" stroke-opacity="0.3"/>
<path d="M130.935 302.425L137.568 309.908L145.051 303.275L138.418 295.791L130.935 302.425Z" fill="#6B8926" stroke="black" stroke-opacity="0.3"/>
<path d="M124.301 294.941L130.935 302.425L138.418 295.791L131.784 288.308L124.301 294.941Z" fill="#74912C" stroke="black" stroke-opacity="0.3"/>
<path d="M117.668 287.458L124.301 294.941L131.785 288.308L125.151 280.825L117.668 287.458Z" fill="#89A344" stroke="black" stroke-opacity="0.3"/>
<path d="M111.035 279.975L117.668 287.458L125.151 280.825L118.518 273.342L111.035 279.975Z" fill="#839E3A" stroke="black" stroke-opacity="0.3"/>
<path d="M104.401 272.492L111.034 279.975L118.518 273.342L111.884 265.858L104.401 272.492Z" fill="#79982A" stroke="black" stroke-opacity="0.3"/>
<path d="M97.7678 265.008L104.401 272.492L111.884 265.858L105.251 258.375L97.7678 265.008Z" fill="#6A8B1C" stroke="black" stroke-opacity="0.3"/>
<path d="M91.1345 257.525L97.7678 265.008L105.251 258.375L98.6177 250.892L91.1345 257.525Z" fill="#597911" stroke="black" stroke-opacity="0.3"/>
<path d="M84.5012 250.042L91.1345 257.525L98.6178 250.892L91.9844 243.409L84.5012 250.042Z" fill="#51700C" stroke="black" stroke-opacity="0.3"/>
<path d="M77.8679 242.559L84.5012 250.042L91.9845 243.409L85.3511 235.925L77.8679 242.559Z" fill="#638318" stroke="black" stroke-opacity="0.3"/>
<path d="M71.2346 235.076L77.8679 242.559L85.3512 235.925L78.7178 228.442L71.2346 235.076Z" fill="#769429" stroke="black" stroke-opacity="0.3"/>
<path d="M64.6013 227.592L71.2346 235.076L78.7179 228.442L72.0845 220.959L64.6013 227.592Z" fill="#48240A" stroke="black" stroke-opacity="0.3"/>
<path d="M184.851 348.174L191.484 355.657L198.968 349.024L192.334 341.541L184.851 348.174Z" fill="#48240A" stroke="black" stroke-opacity="0.3"/>
<path d="M178.218 340.691L184.851 348.174L192.334 341.541L185.701 334.057L178.218 340.691Z" fill="#749430" stroke="black" stroke-opacity="0.3"/>
<path d="M171.584 333.208L178.218 340.691L185.701 334.057L179.068 326.574L171.584 333.208Z" fill="#759331" stroke="black" stroke-opacity="0.3"/>
<path d="M164.951 325.724L171.584 333.208L179.068 326.574L172.434 319.091L164.951 325.724Z" fill="#72902A" stroke="black" stroke-opacity="0.3"/>
<path d="M158.318 318.241L164.951 325.724L172.434 319.091L165.801 311.608L158.318 318.241Z" fill="#74932C" stroke="black" stroke-opacity="0.3"/>
<path d="M151.685 310.758L158.318 318.241L165.801 311.608L159.168 304.124L151.685 310.758Z" fill="#89A742" stroke="black" stroke-opacity="0.3"/>
<path d="M145.051 303.275L151.684 310.758L159.168 304.124L152.534 296.641L145.051 303.275Z" fill="#76932E" stroke="black" stroke-opacity="0.3"/>
<path d="M138.418 295.791L145.051 303.275L152.534 296.641L145.901 289.158L138.418 295.791Z" fill="#6E8B24" stroke="black" stroke-opacity="0.3"/>
<path d="M131.784 288.308L138.418 295.791L145.901 289.158L139.268 281.675L131.784 288.308Z" fill="#718D26" stroke="black" stroke-opacity="0.3"/>
<path d="M125.151 280.825L131.784 288.308L139.268 281.675L132.634 274.192L125.151 280.825Z" fill="#76902E" stroke="black" stroke-opacity="0.3"/>
<path d="M118.518 273.342L125.151 280.825L132.634 274.192L126.001 266.708L118.518 273.342Z" fill="#849F3D" stroke="black" stroke-opacity="0.3"/>
<path d="M111.884 265.858L118.518 273.342L126.001 266.708L119.368 259.225L111.884 265.858Z" fill="#7D9A30" stroke="black" stroke-opacity="0.3"/>
<path d="M105.251 258.375L111.885 265.858L119.368 259.225L112.734 251.742L105.251 258.375Z" fill="#739428" stroke="black" stroke-opacity="0.3"/>
<path d="M98.6179 250.892L105.251 258.375L112.734 251.742L106.101 244.259L98.6179 250.892Z" fill="#69891E" stroke="black" stroke-opacity="0.3"/>
<path d="M91.9843 243.409L98.6177 250.892L106.101 244.259L99.4676 236.775L91.9843 243.409Z" fill="#5E7D16" stroke="black" stroke-opacity="0.3"/>
<path d="M85.351 235.925L91.9844 243.409L99.4676 236.775L92.8343 229.292L85.351 235.925Z" fill="#638318" stroke="black" stroke-opacity="0.3"/>
<path d="M78.7177 228.442L85.3511 235.925L92.8343 229.292L86.201 221.809L78.7177 228.442Z" fill="#769237" stroke="black" stroke-opacity="0.3"/>
<path d="M72.0844 220.959L78.7178 228.442L86.201 221.809L79.5677 214.326L72.0844 220.959Z" fill="#48240A" stroke="black" stroke-opacity="0.3"/>
<path d="M65.4511 213.476L72.0845 220.959L79.5677 214.326L72.9344 206.842L65.4511 213.476Z" fill="#48240A" stroke="black" stroke-opacity="0.3"/>
<path d="M58.8178 205.992L65.4512 213.476L72.9344 206.842L66.3011 199.359L58.8178 205.992Z" fill="#48240A" stroke="black" stroke-opacity="0.3"/>
<path d="M192.334 341.541L198.968 349.024L206.451 342.391L199.818 334.907L192.334 341.541Z" fill="#48240A" stroke="black" stroke-opacity="0.3"/>
<path d="M185.701 334.057L192.334 341.541L199.817 334.907L193.184 327.424L185.701 334.057Z" fill="#748F28" stroke="black" stroke-opacity="0.3"/>
<path d="M179.068 326.574L185.701 334.057L193.184 327.424L186.551 319.941L179.068 326.574Z" fill="#62801D" stroke="black" stroke-opacity="0.3"/>
<path d="M172.434 319.091L179.068 326.574L186.551 319.941L179.918 312.458L172.434 319.091Z" fill="#5A7717" stroke="black" stroke-opacity="0.3"/>
<path d="M165.801 311.608L172.434 319.091L179.918 312.458L173.284 304.974L165.801 311.608Z" fill="#5B7A19" stroke="black" stroke-opacity="0.3"/>
<path d="M159.168 304.124L165.801 311.608L173.284 304.974L166.651 297.491L159.168 304.124Z" fill="#65841E" stroke="black" stroke-opacity="0.3"/>
<path d="M152.534 296.641L159.168 304.124L166.651 297.491L160.018 290.008L152.534 296.641Z" fill="#577712" stroke="black" stroke-opacity="0.3"/>
<path d="M145.901 289.158L152.534 296.641L160.018 290.008L153.384 282.525L145.901 289.158Z" fill="#5B7A11" stroke="black" stroke-opacity="0.3"/>
<path d="M139.268 281.675L145.901 289.158L153.384 282.525L146.751 275.041L139.268 281.675Z" fill="#6E8924" stroke="black" stroke-opacity="0.3"/>
<path d="M132.634 274.192L139.268 281.675L146.751 275.041L140.117 267.558L132.634 274.192Z" fill="#708A26" stroke="black" stroke-opacity="0.3"/>
<path d="M126.001 266.708L132.634 274.192L140.118 267.558L133.484 260.075L126.001 266.708Z" fill="#A3B456" stroke="black" stroke-opacity="0.3"/>
<path d="M119.368 259.225L126.001 266.708L133.484 260.075L126.851 252.592L119.368 259.225Z" fill="#7B972C" stroke="black" stroke-opacity="0.3"/>
<path d="M112.734 251.742L119.368 259.225L126.851 252.592L120.218 245.108L112.734 251.742Z" fill="#7A9629" stroke="black" stroke-opacity="0.3"/>
<path d="M106.101 244.259L112.734 251.742L120.218 245.108L113.584 237.625L106.101 244.259Z" fill="#749027" stroke="black" stroke-opacity="0.3"/>
<path d="M99.4677 236.775L106.101 244.259L113.584 237.625L106.951 230.142L99.4677 236.775Z" fill="#6B8C20" stroke="black" stroke-opacity="0.3"/>
<path d="M92.8344 229.292L99.4678 236.775L106.951 230.142L100.318 222.659L92.8344 229.292Z" fill="#66891B" stroke="black" stroke-opacity="0.3"/>
<path d="M86.2011 221.809L92.8345 229.292L100.318 222.659L93.6844 215.175L86.2011 221.809Z" fill="#91A842" stroke="black" stroke-opacity="0.3"/>
<path d="M79.5676 214.326L86.2009 221.809L93.6842 215.176L87.0508 207.692L79.5676 214.326Z" fill="#48240A" stroke="black" stroke-opacity="0.3"/>
<path d="M72.9343 206.842L79.5676 214.326L87.0509 207.692L80.4175 200.209L72.9343 206.842Z" fill="#96B151" stroke="black" stroke-opacity="0.3"/>
<path d="M66.301 199.359L72.9343 206.842L80.4176 200.209L73.7842 192.726L66.301 199.359Z" fill="#96B151" stroke="black" stroke-opacity="0.3"/>
<path d="M59.6677 191.876L66.301 199.359L73.7843 192.726L67.1509 185.243L59.6677 191.876Z" fill="#48240A" stroke="black" stroke-opacity="0.3"/>
<path d="M199.818 334.907L206.451 342.391L213.934 335.757L207.301 328.274L199.818 334.907Z" fill="#48240A" stroke="black" stroke-opacity="0.3"/>
<path d="M193.184 327.424L199.818 334.907L207.301 328.274L200.668 320.791L193.184 327.424Z" fill="#5C7A14" stroke="black" stroke-opacity="0.3"/>
<path d="M186.551 319.941L193.184 327.424L200.668 320.791L194.034 313.308L186.551 319.941Z" fill="#4C6C07" stroke="black" stroke-opacity="0.3"/>
<path d="M179.918 312.458L186.551 319.941L194.034 313.308L187.401 305.824L179.918 312.458Z" fill="#4E6D09" stroke="black" stroke-opacity="0.3"/>
<path d="M173.284 304.974L179.917 312.458L187.401 305.824L180.767 298.341L173.284 304.974Z" fill="#5B7A15" stroke="black" stroke-opacity="0.3"/>
<path d="M166.651 297.491L173.284 304.974L180.767 298.341L174.134 290.858L166.651 297.491Z" fill="#5E7A18" stroke="black" stroke-opacity="0.3"/>
<path d="M160.018 290.008L166.651 297.491L174.134 290.858L167.501 283.375L160.018 290.008Z" fill="#56750F" stroke="black" stroke-opacity="0.3"/>
<path d="M153.384 282.525L160.018 290.008L167.501 283.375L160.867 275.891L153.384 282.525Z" fill="#6B8822" stroke="black" stroke-opacity="0.3"/>
<path d="M146.751 275.041L153.384 282.525L160.868 275.891L154.234 268.408L146.751 275.041Z" fill="#6C8920" stroke="black" stroke-opacity="0.3"/>
<path d="M140.118 267.558L146.751 275.041L154.234 268.408L147.601 260.925L140.118 267.558Z" fill="#5B770F" stroke="black" stroke-opacity="0.3"/>
<path d="M133.484 260.075L140.118 267.558L147.601 260.925L140.968 253.442L133.484 260.075Z" fill="#A3B456" stroke="black" stroke-opacity="0.3"/>
<path d="M126.851 252.592L133.484 260.075L140.968 253.442L134.334 245.958L126.851 252.592Z" fill="#758F27" stroke="black" stroke-opacity="0.3"/>
<path d="M120.217 245.108L126.851 252.592L134.334 245.958L127.701 238.475L120.217 245.108Z" fill="#7F9A2E" stroke="black" stroke-opacity="0.3"/>
<path d="M113.584 237.625L120.218 245.108L127.701 238.475L121.067 230.992L113.584 237.625Z" fill="#819B35" stroke="black" stroke-opacity="0.3"/>
<path d="M106.951 230.142L113.584 237.625L121.067 230.992L114.434 223.509L106.951 230.142Z" fill="#6C8D1D" stroke="black" stroke-opacity="0.3"/>
<path d="M100.318 222.659L106.951 230.142L114.434 223.509L107.801 216.025L100.318 222.659Z" fill="#91A842" stroke="black" stroke-opacity="0.3"/>
<path d="M93.6843 215.175L100.318 222.659L107.801 216.025L101.168 208.542L93.6843 215.175Z" fill="#91A842" stroke="black" stroke-opacity="0.3"/>
<path d="M87.051 207.692L93.6843 215.176L101.168 208.542L94.5342 201.059L87.051 207.692Z" fill="#749816" stroke="black" stroke-opacity="0.3"/>
<path d="M80.4177 200.209L87.051 207.692L94.5343 201.059L87.9009 193.576L80.4177 200.209Z" fill="#7EA122" stroke="black" stroke-opacity="0.3"/>
<path d="M73.7841 192.726L80.4175 200.209L87.9007 193.576L81.2674 186.092L73.7841 192.726Z" fill="#8AAB29" stroke="black" stroke-opacity="0.3"/>
<path d="M67.1508 185.243L73.7842 192.726L81.2674 186.092L74.6341 178.609L67.1508 185.243Z" fill="#95AA2A" stroke="black" stroke-opacity="0.3"/>
<path d="M200.667 320.791L207.301 328.274L214.784 321.641L208.151 314.157L200.667 320.791Z" fill="#48240A" stroke="black" stroke-opacity="0.3"/>
<path d="M194.034 313.308L200.667 320.791L208.151 314.157L201.517 306.674L194.034 313.308Z" fill="#718E2A" stroke="black" stroke-opacity="0.3"/>
<path d="M187.401 305.824L194.034 313.308L201.517 306.674L194.884 299.191L187.401 305.824Z" fill="#6C8A23" stroke="black" stroke-opacity="0.3"/>
<path d="M180.768 298.341L187.401 305.824L194.884 299.191L188.251 291.708L180.768 298.341Z" fill="#5C7C10" stroke="black" stroke-opacity="0.3"/>
<path d="M174.134 290.858L180.768 298.341L188.251 291.708L181.617 284.224L174.134 290.858Z" fill="#58760D" stroke="black" stroke-opacity="0.3"/>
<path d="M167.501 283.375L174.134 290.858L181.618 284.224L174.984 276.741L167.501 283.375Z" fill="#64821C" stroke="black" stroke-opacity="0.3"/>
<path d="M160.867 275.891L167.501 283.375L174.984 276.741L168.351 269.258L160.867 275.891Z" fill="#6B871F" stroke="black" stroke-opacity="0.3"/>
<path d="M154.234 268.408L160.867 275.891L168.351 269.258L161.717 261.775L154.234 268.408Z" fill="#688326" stroke="black" stroke-opacity="0.3"/>
<path d="M147.601 260.925L154.234 268.408L161.717 261.775L155.084 254.292L147.601 260.925Z" fill="#6A8520" stroke="black" stroke-opacity="0.3"/>
<path d="M140.967 253.442L147.601 260.925L155.084 254.292L148.451 246.808L140.967 253.442Z" fill="#A3B456" stroke="black" stroke-opacity="0.3"/>
<path d="M134.334 245.958L140.968 253.442L148.451 246.808L141.817 239.325L134.334 245.958Z" fill="#607C0D" stroke="black" stroke-opacity="0.3"/>
<path d="M127.701 238.475L134.334 245.958L141.817 239.325L135.184 231.842L127.701 238.475Z" fill="#6E8A21" stroke="black" stroke-opacity="0.3"/>
<path d="M121.068 230.992L127.701 238.475L135.184 231.842L128.551 224.359L121.068 230.992Z" fill="#6A881E" stroke="black" stroke-opacity="0.3"/>
<path d="M114.434 223.509L121.067 230.992L128.551 224.359L121.917 216.875L114.434 223.509Z" fill="#91A842" stroke="black" stroke-opacity="0.3"/>
<path d="M107.801 216.025L114.434 223.509L121.917 216.875L115.284 209.392L107.801 216.025Z" fill="#91A842" stroke="black" stroke-opacity="0.3"/>
<path d="M101.167 208.542L107.801 216.025L115.284 209.392L108.651 201.909L101.167 208.542Z" fill="#486908" stroke="black" stroke-opacity="0.3"/>
<path d="M94.5341 201.059L101.167 208.542L108.651 201.909L102.017 194.426L94.5341 201.059Z" fill="#557212" stroke="black" stroke-opacity="0.3"/>
<path d="M87.9008 193.576L94.5342 201.059L102.017 194.426L95.3841 186.942L87.9008 193.576Z" fill="#5F7F10" stroke="black" stroke-opacity="0.3"/>
<path d="M81.2675 186.092L87.9009 193.576L95.3841 186.942L88.7508 179.459L81.2675 186.092Z" fill="#7E9E26" stroke="black" stroke-opacity="0.3"/>
<path d="M74.6342 178.609L81.2676 186.092L88.7508 179.459L82.1175 171.976L74.6342 178.609Z" fill="#899D27" stroke="black" stroke-opacity="0.3"/>
<path d="M68.0009 171.126L74.6343 178.609L82.1175 171.976L75.4842 164.493L68.0009 171.126Z" fill="#48240A" stroke="black" stroke-opacity="0.3"/>
<path d="M201.517 306.674L208.151 314.157L215.634 307.524L209.001 300.041L201.517 306.674Z" fill="#48240A" stroke="black" stroke-opacity="0.3"/>
<path d="M194.884 299.191L201.517 306.674L209.001 300.041L202.367 292.558L194.884 299.191Z" fill="#5A7B13" stroke="black" stroke-opacity="0.3"/>
<path d="M188.251 291.708L194.884 299.191L202.367 292.558L195.734 285.074L188.251 291.708Z" fill="#5F8018" stroke="black" stroke-opacity="0.3"/>
<path d="M181.617 284.224L188.251 291.708L195.734 285.074L189.101 277.591L181.617 284.224Z" fill="#648019" stroke="black" stroke-opacity="0.3"/>
<path d="M174.984 276.741L181.617 284.224L189.101 277.591L182.467 270.108L174.984 276.741Z" fill="#65801C" stroke="black" stroke-opacity="0.3"/>
<path d="M168.351 269.258L174.984 276.741L182.467 270.108L175.834 262.625L168.351 269.258Z" fill="#67821E" stroke="black" stroke-opacity="0.3"/>
<path d="M161.717 261.775L168.351 269.258L175.834 262.625L169.201 255.141L161.717 261.775Z" fill="#54710C" stroke="black" stroke-opacity="0.3"/>
<path d="M155.084 254.292L161.717 261.775L169.201 255.141L162.567 247.658L155.084 254.292Z" fill="#48680B" stroke="black" stroke-opacity="0.3"/>
<path d="M148.451 246.808L155.084 254.292L162.567 247.658L155.934 240.175L148.451 246.808Z" fill="#A3B456" stroke="black" stroke-opacity="0.3"/>
<path d="M141.817 239.325L148.451 246.808L155.934 240.175L149.301 232.692L141.817 239.325Z" fill="#658012" stroke="black" stroke-opacity="0.3"/>
<path d="M135.184 231.842L141.817 239.325L149.301 232.692L142.667 225.208L135.184 231.842Z" fill="#6F8924" stroke="black" stroke-opacity="0.3"/>
<path d="M128.551 224.359L135.184 231.842L142.667 225.208L136.034 217.725L128.551 224.359Z" fill="#91A842" stroke="black" stroke-opacity="0.3"/>
<path d="M121.917 216.875L128.551 224.359L136.034 217.725L129.401 210.242L121.917 216.875Z" fill="#91A842" stroke="black" stroke-opacity="0.3"/>
<path d="M115.284 209.392L121.917 216.875L129.401 210.242L122.767 202.759L115.284 209.392Z" fill="#56760B" stroke="black" stroke-opacity="0.3"/>
<path d="M108.651 201.909L115.284 209.392L122.767 202.759L116.134 195.276L108.651 201.909Z" fill="#617E17" stroke="black" stroke-opacity="0.3"/>
<path d="M102.017 194.426L108.651 201.909L116.134 195.275L109.501 187.792L102.017 194.426Z" fill="#6A871E" stroke="black" stroke-opacity="0.3"/>
<path d="M95.384 186.942L102.017 194.426L109.501 187.792L102.867 180.309L95.384 186.942Z" fill="#729123" stroke="black" stroke-opacity="0.3"/>
<path d="M88.7507 179.459L95.384 186.942L102.867 180.309L96.2339 172.826L88.7507 179.459Z" fill="#80A027" stroke="black" stroke-opacity="0.3"/>
<path d="M82.1174 171.976L88.7507 179.459L96.234 172.826L89.6006 165.343L82.1174 171.976Z" fill="#8BA22E" stroke="black" stroke-opacity="0.3"/>
<path d="M75.4841 164.493L82.1174 171.976L89.6007 165.343L82.9673 157.859L75.4841 164.493Z" fill="#48240A" stroke="black" stroke-opacity="0.3"/>
<path d="M222.267 315.007L228.901 322.491L236.384 315.857L229.751 308.374L222.267 315.007Z" fill="#48240A" stroke="black" stroke-opacity="0.3"/>
<path d="M215.634 307.524L222.267 315.007L229.751 308.374L223.117 300.891L215.634 307.524Z" fill="#7A9637" stroke="black" stroke-opacity="0.3"/>
<path d="M209.001 300.041L215.634 307.524L223.117 300.891L216.484 293.408L209.001 300.041Z" fill="#96B151" stroke="black" stroke-opacity="0.3"/>
<path d="M202.367 292.558L209.001 300.041L216.484 293.408L209.851 285.924L202.367 292.558Z" fill="#96B151" stroke="black" stroke-opacity="0.3"/>
<path d="M195.734 285.074L202.367 292.558L209.85 285.924L203.217 278.441L195.734 285.074Z" fill="#6B8D22" stroke="black" stroke-opacity="0.3"/>
<path d="M189.101 277.591L195.734 285.074L203.217 278.441L196.584 270.958L189.101 277.591Z" fill="#6B8A1F" stroke="black" stroke-opacity="0.3"/>
<path d="M182.467 270.108L189.101 277.591L196.584 270.958L189.95 263.475L182.467 270.108Z" fill="#6B881D" stroke="black" stroke-opacity="0.3"/>
<path d="M175.834 262.625L182.467 270.108L189.951 263.475L183.317 255.991L175.834 262.625Z" fill="#5C7712" stroke="black" stroke-opacity="0.3"/>
<path d="M169.201 255.141L175.834 262.625L183.317 255.991L176.684 248.508L169.201 255.141Z" fill="#5F7B15" stroke="black" stroke-opacity="0.3"/>
<path d="M162.567 247.658L169.201 255.141L176.684 248.508L170.051 241.025L162.567 247.658Z" fill="#516D11" stroke="black" stroke-opacity="0.3"/>
<path d="M155.934 240.175L162.567 247.658L170.051 241.025L163.417 233.542L155.934 240.175Z" fill="#A3B456" stroke="black" stroke-opacity="0.3"/>
<path d="M149.301 232.692L155.934 240.175L163.417 233.542L156.784 226.058L149.301 232.692Z" fill="#748E25" stroke="black" stroke-opacity="0.3"/>
<path d="M142.667 225.208L149.301 232.692L156.784 226.058L150.15 218.575L142.667 225.208Z" fill="#4A6706" stroke="black" stroke-opacity="0.3"/>
<path d="M136.034 217.725L142.667 225.208L150.15 218.575L143.517 211.092L136.034 217.725Z" fill="#91A842" stroke="black" stroke-opacity="0.3"/>
<path d="M129.401 210.242L136.034 217.725L143.517 211.092L136.884 203.609L129.401 210.242Z" fill="#57760F" stroke="black" stroke-opacity="0.3"/>
<path d="M122.767 202.759L129.401 210.242L136.884 203.609L130.251 196.125L122.767 202.759Z" fill="#648015" stroke="black" stroke-opacity="0.3"/>
<path d="M116.134 195.276L122.767 202.759L130.251 196.125L123.617 188.642L116.134 195.276Z" fill="#728D24" stroke="black" stroke-opacity="0.3"/>
<path d="M109.501 187.792L116.134 195.275L123.617 188.642L116.984 181.159L109.501 187.792Z" fill="#709025" stroke="black" stroke-opacity="0.3"/>
<path d="M102.867 180.309L109.501 187.792L116.984 181.159L110.351 173.676L102.867 180.309Z" fill="#739627" stroke="black" stroke-opacity="0.3"/>
<path d="M96.2341 172.826L102.867 180.309L110.351 173.676L103.717 166.192L96.2341 172.826Z" fill="#72952C" stroke="black" stroke-opacity="0.3"/>
<path d="M89.6006 165.343L96.2339 172.826L103.717 166.192L97.0838 158.709L89.6006 165.343Z" fill="#48240A" stroke="black" stroke-opacity="0.3"/>
<path d="M236.384 315.857L243.017 323.341L250.5 316.707L243.867 309.224L236.384 315.857Z" fill="#48240A" stroke="black" stroke-opacity="0.3"/>
<path d="M229.75 308.374L236.384 315.857L243.867 309.224L237.234 301.741L229.75 308.374Z" fill="#60810F" stroke="black" stroke-opacity="0.3"/>
<path d="M223.117 300.891L229.75 308.374L237.234 301.741L230.6 294.257L223.117 300.891Z" fill="#738F2E" stroke="black" stroke-opacity="0.3"/>
<path d="M216.484 293.408L223.117 300.891L230.6 294.257L223.967 286.774L216.484 293.408Z" fill="#6F8D21" stroke="black" stroke-opacity="0.3"/>
<path d="M209.851 285.924L216.484 293.408L223.967 286.774L217.334 279.291L209.851 285.924Z" fill="#5E800E" stroke="black" stroke-opacity="0.3"/>
<path d="M203.217 278.441L209.851 285.924L217.334 279.291L210.7 271.808L203.217 278.441Z" fill="#638811" stroke="black" stroke-opacity="0.3"/>
<path d="M196.584 270.958L203.217 278.441L210.701 271.808L204.067 264.324L196.584 270.958Z" fill="#628416" stroke="black" stroke-opacity="0.3"/>
<path d="M189.951 263.475L196.584 270.958L204.067 264.324L197.434 256.841L189.951 263.475Z" fill="#5B7D10" stroke="black" stroke-opacity="0.3"/>
<path d="M183.317 255.991L189.95 263.475L197.434 256.841L190.8 249.358L183.317 255.991Z" fill="#507009" stroke="black" stroke-opacity="0.3"/>
<path d="M176.684 248.508L183.317 255.991L190.8 249.358L184.167 241.875L176.684 248.508Z" fill="#557112" stroke="black" stroke-opacity="0.3"/>
<path d="M170.051 241.025L176.684 248.508L184.167 241.875L177.534 234.392L170.051 241.025Z" fill="#5F7B14" stroke="black" stroke-opacity="0.3"/>
<path d="M163.417 233.542L170.051 241.025L177.534 234.392L170.9 226.908L163.417 233.542Z" fill="#5A7417" stroke="black" stroke-opacity="0.3"/>
<path d="M156.784 226.058L163.417 233.542L170.9 226.908L164.267 219.425L156.784 226.058Z" fill="#A3B456" stroke="black" stroke-opacity="0.3"/>
<path d="M150.151 218.575L156.784 226.058L164.267 219.425L157.634 211.942L150.151 218.575Z" fill="#91A842" stroke="black" stroke-opacity="0.3"/>
<path d="M143.517 211.092L150.151 218.575L157.634 211.942L151.001 204.459L143.517 211.092Z" fill="#45640C" stroke="black" stroke-opacity="0.3"/>
<path d="M136.884 203.609L143.517 211.092L151.001 204.459L144.367 196.975L136.884 203.609Z" fill="#719028" stroke="black" stroke-opacity="0.3"/>
<path d="M130.25 196.125L136.884 203.609L144.367 196.975L137.734 189.492L130.25 196.125Z" fill="#77932D" stroke="black" stroke-opacity="0.3"/>
<path d="M123.617 188.642L130.25 196.125L137.734 189.492L131.1 182.009L123.617 188.642Z" fill="#6D8A23" stroke="black" stroke-opacity="0.3"/>
<path d="M116.984 181.159L123.617 188.642L131.1 182.009L124.467 174.526L116.984 181.159Z" fill="#698B21" stroke="black" stroke-opacity="0.3"/>
<path d="M110.351 173.676L116.984 181.159L124.467 174.526L117.834 167.042L110.351 173.676Z" fill="#6C8F27" stroke="black" stroke-opacity="0.3"/>
<path d="M103.717 166.192L110.351 173.676L117.834 167.042L111.2 159.559L103.717 166.192Z" fill="#48240A" stroke="black" stroke-opacity="0.3"/>
<path d="M97.084 158.709L103.717 166.192L111.201 159.559L104.567 152.076L97.084 158.709Z" fill="#48240A" stroke="black" stroke-opacity="0.3"/>
<path d="M90.4507 151.226L97.084 158.709L104.567 152.076L97.9339 144.593L90.4507 151.226Z" fill="#48240A" stroke="black" stroke-opacity="0.3"/>
<path d="M243.867 309.224L250.5 316.707L257.984 310.074L251.35 302.591L243.867 309.224Z" fill="#48240A" stroke="black" stroke-opacity="0.3"/>
<path d="M237.234 301.741L243.867 309.224L251.35 302.591L244.717 295.107L237.234 301.741Z" fill="#719221" stroke="black" stroke-opacity="0.3"/>
<path d="M230.601 294.257L237.234 301.741L244.717 295.107L238.084 287.624L230.601 294.257Z" fill="#6A8D23" stroke="black" stroke-opacity="0.3"/>
<path d="M223.967 286.774L230.6 294.257L238.084 287.624L231.45 280.141L223.967 286.774Z" fill="#668517" stroke="black" stroke-opacity="0.3"/>
<path d="M217.334 279.291L223.967 286.774L231.45 280.141L224.817 272.658L217.334 279.291Z" fill="#678615" stroke="black" stroke-opacity="0.3"/>
<path d="M210.7 271.808L217.334 279.291L224.817 272.658L218.184 265.174L210.7 271.808Z" fill="#60820F" stroke="black" stroke-opacity="0.3"/>
<path d="M204.067 264.324L210.7 271.808L218.184 265.174L211.55 257.691L204.067 264.324Z" fill="#91A842" stroke="black" stroke-opacity="0.3"/>
<path d="M197.434 256.841L204.067 264.324L211.55 257.691L204.917 250.208L197.434 256.841Z" fill="#55780D" stroke="black" stroke-opacity="0.3"/>
<path d="M190.801 249.358L197.434 256.841L204.917 250.208L198.284 242.725L190.801 249.358Z" fill="#4F710A" stroke="black" stroke-opacity="0.3"/>
<path d="M184.167 241.875L190.801 249.358L198.284 242.725L191.65 235.241L184.167 241.875Z" fill="#486807" stroke="black" stroke-opacity="0.3"/>
<path d="M177.534 234.392L184.167 241.875L191.65 235.241L185.017 227.758L177.534 234.392Z" fill="#5A7713" stroke="black" stroke-opacity="0.3"/>
<path d="M170.9 226.908L177.534 234.392L185.017 227.758L178.384 220.275L170.9 226.908Z" fill="#56720B" stroke="black" stroke-opacity="0.3"/>
<path d="M164.267 219.425L170.9 226.908L178.384 220.275L171.75 212.792L164.267 219.425Z" fill="#A3B456" stroke="black" stroke-opacity="0.3"/>
<path d="M157.634 211.942L164.267 219.425L171.75 212.792L165.117 205.308L157.634 211.942Z" fill="#5E7A0F" stroke="black" stroke-opacity="0.3"/>
<path d="M151 204.459L157.634 211.942L165.117 205.308L158.484 197.825L151 204.459Z" fill="#69861E" stroke="black" stroke-opacity="0.3"/>
<path d="M144.367 196.975L151 204.459L158.484 197.825L151.85 190.342L144.367 196.975Z" fill="#7C9836" stroke="black" stroke-opacity="0.3"/>
<path d="M137.734 189.492L144.367 196.975L151.85 190.342L145.217 182.859L137.734 189.492Z" fill="#769330" stroke="black" stroke-opacity="0.3"/>
<path d="M131.101 182.009L137.734 189.492L145.217 182.859L138.584 175.376L131.101 182.009Z" fill="#698920" stroke="black" stroke-opacity="0.3"/>
<path d="M124.467 174.526L131.101 182.009L138.584 175.376L131.95 167.892L124.467 174.526Z" fill="#729127" stroke="black" stroke-opacity="0.3"/>
<path d="M117.834 167.042L124.467 174.526L131.95 167.892L125.317 160.409L117.834 167.042Z" fill="#7C9933" stroke="black" stroke-opacity="0.3"/>
<path d="M111.2 159.559L117.834 167.042L125.317 160.409L118.684 152.926L111.2 159.559Z" fill="#48240A" stroke="black" stroke-opacity="0.3"/>
<path d="M104.567 152.076L111.2 159.559L118.684 152.926L112.05 145.443L104.567 152.076Z" fill="#6E8F1F" stroke="black" stroke-opacity="0.3"/>
<path d="M97.9338 144.593L104.567 152.076L112.05 145.443L105.417 137.959L97.9338 144.593Z" fill="#698F07" stroke="black" stroke-opacity="0.3"/>
<path d="M91.3005 137.109L97.9338 144.593L105.417 137.959L98.7837 130.476L91.3005 137.109Z" fill="#48240A" stroke="black" stroke-opacity="0.3"/>
<path d="M251.35 302.591L257.984 310.074L265.467 303.441L258.834 295.957L251.35 302.591Z" fill="#48240A" stroke="black" stroke-opacity="0.3"/>
<path d="M244.717 295.107L251.35 302.591L258.834 295.957L252.2 288.474L244.717 295.107Z" fill="#94B242" stroke="black" stroke-opacity="0.3"/>
<path d="M238.084 287.624L244.717 295.107L252.2 288.474L245.567 280.991L238.084 287.624Z" fill="#74962B" stroke="black" stroke-opacity="0.3"/>
<path d="M231.45 280.141L238.084 287.624L245.567 280.991L238.934 273.508L231.45 280.141Z" fill="#66861A" stroke="black" stroke-opacity="0.3"/>
<path d="M224.817 272.658L231.45 280.141L238.934 273.508L232.3 266.024L224.817 272.658Z" fill="#668216" stroke="black" stroke-opacity="0.3"/>
<path d="M218.184 265.174L224.817 272.658L232.3 266.024L225.667 258.541L218.184 265.174Z" fill="#567008" stroke="black" stroke-opacity="0.3"/>
<path d="M211.55 257.691L218.184 265.174L225.667 258.541L219.034 251.058L211.55 257.691Z" fill="#91A842" stroke="black" stroke-opacity="0.3"/>
<path d="M204.917 250.208L211.55 257.691L219.034 251.058L212.4 243.575L204.917 250.208Z" fill="#68891C" stroke="black" stroke-opacity="0.3"/>
<path d="M198.284 242.725L204.917 250.208L212.4 243.575L205.767 236.091L198.284 242.725Z" fill="#5C7C15" stroke="black" stroke-opacity="0.3"/>
<path d="M191.65 235.241L198.284 242.725L205.767 236.091L199.134 228.608L191.65 235.241Z" fill="#506E07" stroke="black" stroke-opacity="0.3"/>
<path d="M185.017 227.758L191.65 235.241L199.134 228.608L192.5 221.125L185.017 227.758Z" fill="#526E07" stroke="black" stroke-opacity="0.3"/>
<path d="M178.384 220.275L185.017 227.758L192.5 221.125L185.867 213.642L178.384 220.275Z" fill="#5C780E" stroke="black" stroke-opacity="0.3"/>
<path d="M171.75 212.792L178.384 220.275L185.867 213.642L179.234 206.158L171.75 212.792Z" fill="#A3B456" stroke="black" stroke-opacity="0.3"/>
<path d="M165.117 205.308L171.75 212.792L179.234 206.158L172.6 198.675L165.117 205.308Z" fill="#5E7910" stroke="black" stroke-opacity="0.3"/>
<path d="M158.484 197.825L165.117 205.308L172.6 198.675L165.967 191.192L158.484 197.825Z" fill="#728D26" stroke="black" stroke-opacity="0.3"/>
<path d="M151.85 190.342L158.484 197.825L165.967 191.192L159.334 183.709L151.85 190.342Z" fill="#637F1E" stroke="black" stroke-opacity="0.3"/>
<path d="M145.217 182.859L151.85 190.342L159.334 183.709L152.7 176.225L145.217 182.859Z" fill="#5B7A14" stroke="black" stroke-opacity="0.3"/>
<path d="M138.584 175.376L145.217 182.859L152.7 176.225L146.067 168.742L138.584 175.376Z" fill="#638317" stroke="black" stroke-opacity="0.3"/>
<path d="M131.95 167.892L138.584 175.376L146.067 168.742L139.434 161.259L131.95 167.892Z" fill="#739129" stroke="black" stroke-opacity="0.3"/>
<path d="M125.317 160.409L131.95 167.892L139.434 161.259L132.8 153.776L125.317 160.409Z" fill="#779A17" stroke="black" stroke-opacity="0.3"/>
<path d="M118.684 152.926L125.317 160.409L132.8 153.776L126.167 146.292L118.684 152.926Z" fill="#698F09" stroke="black" stroke-opacity="0.3"/>
<path d="M112.05 145.443L118.684 152.926L126.167 146.292L119.534 138.809L112.05 145.443Z" fill="#658913" stroke="black" stroke-opacity="0.3"/>
<path d="M105.417 137.959L112.05 145.443L119.534 138.809L112.9 131.326L105.417 137.959Z" fill="#62870A" stroke="black" stroke-opacity="0.3"/>
<path d="M98.7837 130.476L105.417 137.959L112.9 131.326L106.267 123.843L98.7837 130.476Z" fill="#8FB530" stroke="black" stroke-opacity="0.3"/>
<path d="M252.2 288.474L258.833 295.957L266.317 289.324L259.683 281.841L252.2 288.474Z" fill="#9FBA4B" stroke="black" stroke-opacity="0.3"/>
<path d="M245.567 280.991L252.2 288.474L259.683 281.841L253.05 274.357L245.567 280.991Z" fill="#8BA843" stroke="black" stroke-opacity="0.3"/>
<path d="M238.934 273.508L245.567 280.991L253.05 274.357L246.417 266.874L238.934 273.508Z" fill="#709125" stroke="black" stroke-opacity="0.3"/>
<path d="M232.3 266.024L238.934 273.508L246.417 266.874L239.784 259.391L232.3 266.024Z" fill="#618116" stroke="black" stroke-opacity="0.3"/>
<path d="M225.667 258.541L232.3 266.024L239.784 259.391L233.15 251.908L225.667 258.541Z" fill="#5B7408" stroke="black" stroke-opacity="0.3"/>
<path d="M219.034 251.058L225.667 258.541L233.15 251.908L226.517 244.425L219.034 251.058Z" fill="#6F8413" stroke="black" stroke-opacity="0.3"/>
<path d="M212.4 243.575L219.034 251.058L226.517 244.424L219.884 236.941L212.4 243.575Z" fill="#91A842" stroke="black" stroke-opacity="0.3"/>
<path d="M205.767 236.091L212.4 243.575L219.884 236.941L213.25 229.458L205.767 236.091Z" fill="#91A842" stroke="black" stroke-opacity="0.3"/>
<path d="M199.134 228.608L205.767 236.091L213.25 229.458L206.617 221.975L199.134 228.608Z" fill="#648013" stroke="black" stroke-opacity="0.3"/>
<path d="M192.5 221.125L199.134 228.608L206.617 221.975L199.983 214.492L192.5 221.125Z" fill="#5A7711" stroke="black" stroke-opacity="0.3"/>
<path d="M185.867 213.642L192.5 221.125L199.983 214.492L193.35 207.008L185.867 213.642Z" fill="#5B760D" stroke="black" stroke-opacity="0.3"/>
<path d="M179.234 206.158L185.867 213.642L193.35 207.008L186.717 199.525L179.234 206.158Z" fill="#A3B456" stroke="black" stroke-opacity="0.3"/>
<path d="M172.6 198.675L179.234 206.158L186.717 199.525L180.084 192.042L172.6 198.675Z" fill="#6E8A21" stroke="black" stroke-opacity="0.3"/>
<path d="M165.967 191.192L172.6 198.675L180.084 192.042L173.45 184.559L165.967 191.192Z" fill="#748F29" stroke="black" stroke-opacity="0.3"/>
<path d="M159.334 183.709L165.967 191.192L173.45 184.559L166.817 177.075L159.334 183.709Z" fill="#56740C" stroke="black" stroke-opacity="0.3"/>
<path d="M152.7 176.225L159.333 183.709L166.817 177.075L160.183 169.592L152.7 176.225Z" fill="#52730B" stroke="black" stroke-opacity="0.3"/>
<path d="M146.067 168.742L152.7 176.225L160.183 169.592L153.55 162.109L146.067 168.742Z" fill="#5D7E13" stroke="black" stroke-opacity="0.3"/>
<path d="M139.434 161.259L146.067 168.742L153.55 162.109L146.917 154.626L139.434 161.259Z" fill="#6A8A1F" stroke="black" stroke-opacity="0.3"/>
<path d="M132.8 153.776L139.434 161.259L146.917 154.626L140.284 147.142L132.8 153.776Z" fill="#6B8A19" stroke="black" stroke-opacity="0.3"/>
<path d="M126.167 146.292L132.8 153.776L140.284 147.142L133.65 139.659L126.167 146.292Z" fill="#668816" stroke="black" stroke-opacity="0.3"/>
<path d="M119.534 138.809L126.167 146.292L133.65 139.659L127.017 132.176L119.534 138.809Z" fill="#597D09" stroke="black" stroke-opacity="0.3"/>
<path d="M112.9 131.326L119.534 138.809L127.017 132.176L120.384 124.693L112.9 131.326Z" fill="#698C1A" stroke="black" stroke-opacity="0.3"/>
<path d="M106.267 123.843L112.9 131.326L120.384 124.693L113.75 117.209L106.267 123.843Z" fill="#8BAF34" stroke="black" stroke-opacity="0.3"/>
<path d="M99.6335 116.359L106.267 123.843L113.75 117.209L107.117 109.726L99.6335 116.359Z" fill="#48240A" stroke="black" stroke-opacity="0.3"/>
<path d="M259.684 281.841L266.317 289.324L273.8 282.691L267.167 275.207L259.684 281.841Z" fill="#48240A" stroke="black" stroke-opacity="0.3"/>
<path d="M253.05 274.357L259.684 281.841L267.167 275.207L260.534 267.724L253.05 274.357Z" fill="#98B350" stroke="black" stroke-opacity="0.3"/>
<path d="M246.417 266.874L253.05 274.357L260.534 267.724L253.9 260.241L246.417 266.874Z" fill="#94AF56" stroke="black" stroke-opacity="0.3"/>
<path d="M239.783 259.391L246.417 266.874L253.9 260.241L247.267 252.758L239.783 259.391Z" fill="#7B9C30" stroke="black" stroke-opacity="0.3"/>
<path d="M233.15 251.908L239.783 259.391L247.267 252.758L240.633 245.274L233.15 251.908Z" fill="#709020" stroke="black" stroke-opacity="0.3"/>
<path d="M226.517 244.424L233.15 251.908L240.633 245.274L234 237.791L226.517 244.424Z" fill="#6E8A18" stroke="black" stroke-opacity="0.3"/>
<path d="M219.884 236.941L226.517 244.424L234 237.791L227.367 230.308L219.884 236.941Z" fill="#698216" stroke="black" stroke-opacity="0.3"/>
<path d="M213.25 229.458L219.884 236.941L227.367 230.308L220.733 222.825L213.25 229.458Z" fill="#91A842" stroke="black" stroke-opacity="0.3"/>
<path d="M206.617 221.975L213.25 229.458L220.733 222.825L214.1 215.341L206.617 221.975Z" fill="#708A1A" stroke="black" stroke-opacity="0.3"/>
<path d="M199.984 214.492L206.617 221.975L214.1 215.341L207.467 207.858L199.984 214.492Z" fill="#637F13" stroke="black" stroke-opacity="0.3"/>
<path d="M193.35 207.008L199.983 214.492L207.467 207.858L200.833 200.375L193.35 207.008Z" fill="#4B6907" stroke="black" stroke-opacity="0.3"/>
<path d="M186.717 199.525L193.35 207.008L200.833 200.375L194.2 192.892L186.717 199.525Z" fill="#93A446" stroke="black" stroke-opacity="0.3"/>
<path d="M180.083 192.042L186.717 199.525L194.2 192.892L187.567 185.408L180.083 192.042Z" fill="#6D8A23" stroke="black" stroke-opacity="0.3"/>
<path d="M173.45 184.559L180.083 192.042L187.567 185.408L180.933 177.925L173.45 184.559Z" fill="#587510" stroke="black" stroke-opacity="0.3"/>
<path d="M166.817 177.075L173.45 184.559L180.933 177.925L174.3 170.442L166.817 177.075Z" fill="#466809" stroke="black" stroke-opacity="0.3"/>
<path d="M160.184 169.592L166.817 177.075L174.3 170.442L167.667 162.959L160.184 169.592Z" fill="#486B0C" stroke="black" stroke-opacity="0.3"/>
<path d="M153.55 162.109L160.184 169.592L167.667 162.959L161.034 155.476L153.55 162.109Z" fill="#5D7E14" stroke="black" stroke-opacity="0.3"/>
<path d="M146.917 154.626L153.55 162.109L161.034 155.476L154.4 147.992L146.917 154.626Z" fill="#5F8013" stroke="black" stroke-opacity="0.3"/>
<path d="M140.283 147.142L146.917 154.626L154.4 147.992L147.767 140.509L140.283 147.142Z" fill="#506E11" stroke="black" stroke-opacity="0.3"/>
<path d="M133.65 139.659L140.283 147.142L147.767 140.509L141.133 133.026L133.65 139.659Z" fill="#628218" stroke="black" stroke-opacity="0.3"/>
<path d="M127.017 132.176L133.65 139.659L141.133 133.026L134.5 125.543L127.017 132.176Z" fill="#709126" stroke="black" stroke-opacity="0.3"/>
<path d="M120.384 124.693L127.017 132.176L134.5 125.543L127.867 118.059L120.384 124.693Z" fill="#82A233" stroke="black" stroke-opacity="0.3"/>
<path d="M113.75 117.209L120.384 124.693L127.867 118.059L121.233 110.576L113.75 117.209Z" fill="#89AF34" stroke="black" stroke-opacity="0.3"/>
<path d="M107.117 109.726L113.75 117.209L121.233 110.576L114.6 103.093L107.117 109.726Z" fill="#48240A" stroke="black" stroke-opacity="0.3"/>
<path d="M267.167 275.207L273.8 282.691L281.283 276.057L274.65 268.574L267.167 275.207Z" fill="#48240A" stroke="black" stroke-opacity="0.3"/>
<path d="M260.533 267.724L267.167 275.207L274.65 268.574L268.017 261.091L260.533 267.724Z" fill="#728D27" stroke="black" stroke-opacity="0.3"/>
<path d="M253.9 260.241L260.533 267.724L268.017 261.091L261.383 253.608L253.9 260.241Z" fill="#3A5704" stroke="black" stroke-opacity="0.3"/>
<path d="M247.267 252.758L253.9 260.241L261.383 253.608L254.75 246.124L247.267 252.758Z" fill="#8EB04A" stroke="black" stroke-opacity="0.3"/>
<path d="M240.634 245.274L247.267 252.758L254.75 246.124L248.117 238.641L240.634 245.274Z" fill="#8AAD49" stroke="black" stroke-opacity="0.3"/>
<path d="M234 237.791L240.633 245.274L248.117 238.641L241.483 231.158L234 237.791Z" fill="#7FA033" stroke="black" stroke-opacity="0.3"/>
<path d="M227.367 230.308L234 237.791L241.483 231.158L234.85 223.675L227.367 230.308Z" fill="#74911F" stroke="black" stroke-opacity="0.3"/>
<path d="M220.733 222.825L227.367 230.308L234.85 223.675L228.217 216.191L220.733 222.825Z" fill="#698314" stroke="black" stroke-opacity="0.3"/>
<path d="M214.1 215.341L220.733 222.825L228.217 216.191L221.583 208.708L214.1 215.341Z" fill="#91A842" stroke="black" stroke-opacity="0.3"/>
<path d="M207.467 207.858L214.1 215.341L221.583 208.708L214.95 201.225L207.467 207.858Z" fill="#688216" stroke="black" stroke-opacity="0.3"/>
<path d="M200.833 200.375L207.467 207.858L214.95 201.225L208.317 193.742L200.833 200.375Z" fill="#54710A" stroke="black" stroke-opacity="0.3"/>
<path d="M194.2 192.892L200.833 200.375L208.317 193.742L201.683 186.258L194.2 192.892Z" fill="#A3B456" stroke="black" stroke-opacity="0.3"/>
<path d="M187.567 185.408L194.2 192.892L201.683 186.258L195.05 178.775L187.567 185.408Z" fill="#6C862B" stroke="black" stroke-opacity="0.3"/>
<path d="M180.933 177.925L187.567 185.408L195.05 178.775L188.417 171.292L180.933 177.925Z" fill="#446505" stroke="black" stroke-opacity="0.3"/>
<path d="M174.3 170.442L180.933 177.925L188.417 171.292L181.783 163.809L174.3 170.442Z" fill="#4D6F0E" stroke="black" stroke-opacity="0.3"/>
<path d="M167.667 162.959L174.3 170.442L181.783 163.809L175.15 156.325L167.667 162.959Z" fill="#678721" stroke="black" stroke-opacity="0.3"/>
<path d="M161.033 155.475L167.667 162.959L175.15 156.325L168.517 148.842L161.033 155.475Z" fill="#648419" stroke="black" stroke-opacity="0.3"/>
<path d="M154.4 147.992L161.033 155.476L168.517 148.842L161.883 141.359L154.4 147.992Z" fill="#59770D" stroke="black" stroke-opacity="0.3"/>
<path d="M147.767 140.509L154.4 147.992L161.883 141.359L155.25 133.876L147.767 140.509Z" fill="#5E7C13" stroke="black" stroke-opacity="0.3"/>
<path d="M141.134 133.026L147.767 140.509L155.25 133.876L148.617 126.392L141.134 133.026Z" fill="#6B8C20" stroke="black" stroke-opacity="0.3"/>
<path d="M134.5 125.543L141.134 133.026L148.617 126.392L141.983 118.909L134.5 125.543Z" fill="#82A137" stroke="black" stroke-opacity="0.3"/>
<path d="M127.867 118.059L134.5 125.543L141.983 118.909L135.35 111.426L127.867 118.059Z" fill="#87AA39" stroke="black" stroke-opacity="0.3"/>
<path d="M121.233 110.576L127.867 118.059L135.35 111.426L128.717 103.943L121.233 110.576Z" fill="#48240A" stroke="black" stroke-opacity="0.3"/>
<path d="M268.017 261.091L274.65 268.574L282.133 261.941L275.5 254.457L268.017 261.091Z" fill="#48240A" stroke="black" stroke-opacity="0.3"/>
<path d="M261.383 253.608L268.017 261.091L275.5 254.457L268.867 246.974L261.383 253.608Z" fill="#48240A" stroke="black" stroke-opacity="0.3"/>
<path d="M254.75 246.124L261.383 253.608L268.867 246.974L262.233 239.491L254.75 246.124Z" fill="#48240A" stroke="black" stroke-opacity="0.3"/>
<path d="M248.117 238.641L254.75 246.124L262.233 239.491L255.6 232.008L248.117 238.641Z" fill="#80AA55" stroke="black" stroke-opacity="0.3"/>
<path d="M241.483 231.158L248.117 238.641L255.6 232.008L248.967 224.524L241.483 231.158Z" fill="#81A435" stroke="black" stroke-opacity="0.3"/>
<path d="M234.85 223.675L241.483 231.158L248.967 224.524L242.333 217.041L234.85 223.675Z" fill="#799B2D" stroke="black" stroke-opacity="0.3"/>
<path d="M228.217 216.191L234.85 223.675L242.333 217.041L235.7 209.558L228.217 216.191Z" fill="#799626" stroke="black" stroke-opacity="0.3"/>
<path d="M221.583 208.708L228.217 216.191L235.7 209.558L229.066 202.075L221.583 208.708Z" fill="#91A842" stroke="black" stroke-opacity="0.3"/>
<path d="M214.95 201.225L221.583 208.708L229.066 202.075L222.433 194.592L214.95 201.225Z" fill="#90A842" stroke="black" stroke-opacity="0.3"/>
<path d="M208.317 193.742L214.95 201.225L222.433 194.592L215.8 187.108L208.317 193.742Z" fill="#688319" stroke="black" stroke-opacity="0.3"/>
<path d="M201.683 186.258L208.317 193.742L215.8 187.108L209.167 179.625L201.683 186.258Z" fill="#A3B456" stroke="black" stroke-opacity="0.3"/>
<path d="M195.05 178.775L201.683 186.258L209.167 179.625L202.533 172.142L195.05 178.775Z" fill="#4F6C08" stroke="black" stroke-opacity="0.3"/>
<path d="M188.417 171.292L195.05 178.775L202.533 172.142L195.9 164.659L188.417 171.292Z" fill="#56740C" stroke="black" stroke-opacity="0.3"/>
<path d="M181.783 163.809L188.417 171.292L195.9 164.659L189.267 157.175L181.783 163.809Z" fill="#64831C" stroke="black" stroke-opacity="0.3"/>
<path d="M175.15 156.325L181.783 163.809L189.267 157.175L182.633 149.692L175.15 156.325Z" fill="#719029" stroke="black" stroke-opacity="0.3"/>
<path d="M168.517 148.842L175.15 156.325L182.633 149.692L176 142.209L168.517 148.842Z" fill="#627E16" stroke="black" stroke-opacity="0.3"/>
<path d="M161.883 141.359L168.517 148.842L176 142.209L169.367 134.726L161.883 141.359Z" fill="#678218" stroke="black" stroke-opacity="0.3"/>
<path d="M155.25 133.876L161.883 141.359L169.367 134.726L162.733 127.242L155.25 133.876Z" fill="#769227" stroke="black" stroke-opacity="0.3"/>
<path d="M148.617 126.392L155.25 133.876L162.733 127.242L156.1 119.759L148.617 126.392Z" fill="#7D9D2E" stroke="black" stroke-opacity="0.3"/>
<path d="M141.983 118.909L148.617 126.392L156.1 119.759L149.467 112.276L141.983 118.909Z" fill="#85A333" stroke="black" stroke-opacity="0.3"/>
<path d="M135.35 111.426L141.983 118.909L149.467 112.276L142.833 104.793L135.35 111.426Z" fill="#48240A" stroke="black" stroke-opacity="0.3"/>
<path d="M255.6 232.008L262.233 239.491L269.716 232.858L263.083 225.374L255.6 232.008Z" fill="#48240A" stroke="black" stroke-opacity="0.3"/>
<path d="M248.967 224.524L255.6 232.008L263.083 225.374L256.45 217.891L248.967 224.524Z" fill="#48240A" stroke="black" stroke-opacity="0.3"/>
<path d="M242.333 217.041L248.967 224.524L256.45 217.891L249.816 210.408L242.333 217.041Z" fill="#819C34" stroke="black" stroke-opacity="0.3"/>
<path d="M235.7 209.558L242.333 217.041L249.816 210.408L243.183 202.925L235.7 209.558Z" fill="#7A982C" stroke="black" stroke-opacity="0.3"/>
<path d="M229.067 202.075L235.7 209.558L243.183 202.925L236.55 195.441L229.067 202.075Z" fill="#799528" stroke="black" stroke-opacity="0.3"/>
<path d="M222.433 194.592L229.067 202.075L236.55 195.441L229.917 187.958L222.433 194.592Z" fill="#6D8518" stroke="black" stroke-opacity="0.3"/>
<path d="M215.8 187.108L222.433 194.592L229.917 187.958L223.283 180.475L215.8 187.108Z" fill="#3A5704" stroke="black" stroke-opacity="0.3"/>
<path d="M209.166 179.625L215.8 187.108L223.283 180.475L216.65 172.992L209.166 179.625Z" fill="#A3B456" stroke="black" stroke-opacity="0.3"/>
<path d="M202.533 172.142L209.167 179.625L216.65 172.992L210.016 165.508L202.533 172.142Z" fill="#58750F" stroke="black" stroke-opacity="0.3"/>
<path d="M195.9 164.659L202.533 172.142L210.016 165.508L203.383 158.025L195.9 164.659Z" fill="#5E7A10" stroke="black" stroke-opacity="0.3"/>
<path d="M189.267 157.175L195.9 164.659L203.383 158.025L196.75 150.542L189.267 157.175Z" fill="#76942B" stroke="black" stroke-opacity="0.3"/>
<path d="M182.633 149.692L189.267 157.175L196.75 150.542L190.117 143.059L182.633 149.692Z" fill="#6A871C" stroke="black" stroke-opacity="0.3"/>
<path d="M176 142.209L182.633 149.692L190.117 143.059L183.483 135.576L176 142.209Z" fill="#5E7A0F" stroke="black" stroke-opacity="0.3"/>
<path d="M169.367 134.726L176 142.209L183.483 135.576L176.85 128.092L169.367 134.726Z" fill="#718F24" stroke="black" stroke-opacity="0.3"/>
<path d="M162.733 127.242L169.367 134.726L176.85 128.092L170.217 120.609L162.733 127.242Z" fill="#85A53D" stroke="black" stroke-opacity="0.3"/>
<path d="M156.1 119.759L162.733 127.242L170.216 120.609L163.583 113.126L156.1 119.759Z" fill="#87AA40" stroke="black" stroke-opacity="0.3"/>
<path d="M149.467 112.276L156.1 119.759L163.583 113.126L156.95 105.643L149.467 112.276Z" fill="#48240A" stroke="black" stroke-opacity="0.3"/>
<path d="M269.717 232.858L276.35 240.341L283.833 233.708L277.2 226.224L269.717 232.858Z" fill="#48240A" stroke="black" stroke-opacity="0.3"/>
<path d="M263.083 225.374L269.717 232.858L277.2 226.224L270.566 218.741L263.083 225.374Z" fill="#728D27" stroke="black" stroke-opacity="0.3"/>
<path d="M256.45 217.891L263.083 225.374L270.566 218.741L263.933 211.258L256.45 217.891Z" fill="#769D4E" stroke="black" stroke-opacity="0.3"/>
<path d="M249.816 210.408L256.45 217.891L263.933 211.258L257.3 203.775L249.816 210.408Z" fill="#96B151" stroke="black" stroke-opacity="0.3"/>
<path d="M243.183 202.925L249.816 210.408L257.3 203.775L250.666 196.291L243.183 202.925Z" fill="#78972D" stroke="black" stroke-opacity="0.3"/>
<path d="M236.55 195.441L243.183 202.925L250.666 196.291L244.033 188.808L236.55 195.441Z" fill="#719123" stroke="black" stroke-opacity="0.3"/>
<path d="M229.916 187.958L236.55 195.441L244.033 188.808L237.4 181.325L229.916 187.958Z" fill="#728C1F" stroke="black" stroke-opacity="0.3"/>
<path d="M223.283 180.475L229.917 187.958L237.4 181.325L230.766 173.842L223.283 180.475Z" fill="#6E8618" stroke="black" stroke-opacity="0.3"/>
<path d="M216.65 172.992L223.283 180.475L230.766 173.842L224.133 166.358L216.65 172.992Z" fill="#A3B456" stroke="black" stroke-opacity="0.3"/>
<path d="M210.017 165.508L216.65 172.992L224.133 166.358L217.5 158.875L210.017 165.508Z" fill="#5C740E" stroke="black" stroke-opacity="0.3"/>
<path d="M203.383 158.025L210.017 165.508L217.5 158.875L210.867 151.392L203.383 158.025Z" fill="#6E871E" stroke="black" stroke-opacity="0.3"/>
<path d="M196.75 150.542L203.383 158.025L210.866 151.392L204.233 143.909L196.75 150.542Z" fill="#718A23" stroke="black" stroke-opacity="0.3"/>
<path d="M190.116 143.059L196.75 150.542L204.233 143.909L197.6 136.425L190.116 143.059Z" fill="#617D12" stroke="black" stroke-opacity="0.3"/>
<path d="M183.483 135.576L190.116 143.059L197.6 136.425L190.966 128.942L183.483 135.576Z" fill="#6B8920" stroke="black" stroke-opacity="0.3"/>
<path d="M176.85 128.092L183.483 135.576L190.966 128.942L184.333 121.459L176.85 128.092Z" fill="#7D9C35" stroke="black" stroke-opacity="0.3"/>
<path d="M170.217 120.609L176.85 128.092L184.333 121.459L177.7 113.976L170.217 120.609Z" fill="#84A53D" stroke="black" stroke-opacity="0.3"/>
<path d="M163.583 113.126L170.217 120.609L177.7 113.976L171.066 106.492L163.583 113.126Z" fill="#48240A" stroke="black" stroke-opacity="0.3"/>
<path d="M156.95 105.643L163.583 113.126L171.066 106.492L164.433 99.0092L156.95 105.643Z" fill="#48240A" stroke="black" stroke-opacity="0.3"/>
<path d="M150.316 98.1593L156.95 105.643L164.433 99.0092L157.8 91.526L150.316 98.1593Z" fill="#48240A" stroke="black" stroke-opacity="0.3"/>
<path d="M283.833 233.708L290.466 241.191L297.95 234.557L291.316 227.074L283.833 233.708Z" fill="#48240A" stroke="black" stroke-opacity="0.3"/>
<path d="M277.2 226.224L283.833 233.708L291.316 227.074L284.683 219.591L277.2 226.224Z" fill="#8FAF30" stroke="black" stroke-opacity="0.3"/>
<path d="M270.566 218.741L277.2 226.224L284.683 219.591L278.05 212.108L270.566 218.741Z" fill="#85A731" stroke="black" stroke-opacity="0.3"/>
<path d="M263.933 211.258L270.566 218.741L278.05 212.108L271.416 204.625L263.933 211.258Z" fill="#749137" stroke="black" stroke-opacity="0.3"/>
<path d="M257.3 203.775L263.933 211.258L271.416 204.624L264.783 197.141L257.3 203.775Z" fill="#719033" stroke="black" stroke-opacity="0.3"/>
<path d="M250.666 196.291L257.3 203.775L264.783 197.141L258.15 189.658L250.666 196.291Z" fill="#7B963A" stroke="black" stroke-opacity="0.3"/>
<path d="M244.033 188.808L250.667 196.291L258.15 189.658L251.516 182.175L244.033 188.808Z" fill="#6F8D23" stroke="black" stroke-opacity="0.3"/>
<path d="M237.4 181.325L244.033 188.808L251.516 182.175L244.883 174.692L237.4 181.325Z" fill="#6F8B1E" stroke="black" stroke-opacity="0.3"/>
<path d="M230.766 173.842L237.4 181.325L244.883 174.692L238.25 167.208L230.766 173.842Z" fill="#72891B" stroke="black" stroke-opacity="0.3"/>
<path d="M224.133 166.358L230.766 173.842L238.25 167.208L231.616 159.725L224.133 166.358Z" fill="#667C14" stroke="black" stroke-opacity="0.3"/>
<path d="M217.5 158.875L224.133 166.358L231.616 159.725L224.983 152.242L217.5 158.875Z" fill="#A3B456" stroke="black" stroke-opacity="0.3"/>
<path d="M210.866 151.392L217.5 158.875L224.983 152.242L218.35 144.759L210.866 151.392Z" fill="#67811D" stroke="black" stroke-opacity="0.3"/>
<path d="M204.233 143.909L210.866 151.392L218.35 144.759L211.716 137.275L204.233 143.909Z" fill="#5D790E" stroke="black" stroke-opacity="0.3"/>
<path d="M197.6 136.425L204.233 143.909L211.716 137.275L205.083 129.792L197.6 136.425Z" fill="#6A8820" stroke="black" stroke-opacity="0.3"/>
<path d="M190.966 128.942L197.6 136.425L205.083 129.792L198.45 122.309L190.966 128.942Z" fill="#769432" stroke="black" stroke-opacity="0.3"/>
<path d="M184.333 121.459L190.966 128.942L198.45 122.309L191.816 114.826L184.333 121.459Z" fill="#769435" stroke="black" stroke-opacity="0.3"/>
<path d="M177.7 113.976L184.333 121.459L191.816 114.826L185.183 107.342L177.7 113.976Z" fill="#96B151" stroke="black" stroke-opacity="0.3"/>
<path d="M171.066 106.492L177.7 113.976L185.183 107.342L178.55 99.8591L171.066 106.492Z" fill="#88A728" stroke="black" stroke-opacity="0.3"/>
<path d="M164.433 99.0092L171.066 106.492L178.55 99.8591L171.916 92.3759L164.433 99.0092Z" fill="#3A5704" stroke="black" stroke-opacity="0.3"/>
<path d="M157.8 91.526L164.433 99.0092L171.916 92.3759L165.283 84.8926L157.8 91.526Z" fill="#3A5704" stroke="black" stroke-opacity="0.3"/>
<path d="M151.166 84.0427L157.8 91.526L165.283 84.8926L158.65 77.4094L151.166 84.0427Z" fill="#48240A" stroke="black" stroke-opacity="0.3"/>
<path d="M291.316 227.074L297.95 234.557L305.433 227.924L298.8 220.441L291.316 227.074Z" fill="#48240A" stroke="black" stroke-opacity="0.3"/>
<path d="M284.683 219.591L291.316 227.074L298.8 220.441L292.166 212.958L284.683 219.591Z" fill="#90AD3E" stroke="black" stroke-opacity="0.3"/>
<path d="M278.05 212.108L284.683 219.591L292.166 212.958L285.533 205.474L278.05 212.108Z" fill="#89A739" stroke="black" stroke-opacity="0.3"/>
<path d="M271.416 204.625L278.05 212.108L285.533 205.474L278.899 197.991L271.416 204.625Z" fill="#74942A" stroke="black" stroke-opacity="0.3"/>
<path d="M264.783 197.141L271.416 204.624L278.9 197.991L272.266 190.508L264.783 197.141Z" fill="#6F8D23" stroke="black" stroke-opacity="0.3"/>
<path d="M258.15 189.658L264.783 197.141L272.266 190.508L265.633 183.025L258.15 189.658Z" fill="#6D8C23" stroke="black" stroke-opacity="0.3"/>
<path d="M251.516 182.175L258.15 189.658L265.633 183.025L259 175.541L251.516 182.175Z" fill="#6C8C22" stroke="black" stroke-opacity="0.3"/>
<path d="M244.883 174.692L251.516 182.175L259 175.541L252.366 168.058L244.883 174.692Z" fill="#6C8A21" stroke="black" stroke-opacity="0.3"/>
<path d="M238.25 167.208L244.883 174.692L252.366 168.058L245.733 160.575L238.25 167.208Z" fill="#6E8A1C" stroke="black" stroke-opacity="0.3"/>
<path d="M231.616 159.725L238.25 167.208L245.733 160.575L239.099 153.092L231.616 159.725Z" fill="#5F7611" stroke="black" stroke-opacity="0.3"/>
<path d="M224.983 152.242L231.616 159.725L239.099 153.092L232.466 145.608L224.983 152.242Z" fill="#A5B251" stroke="black" stroke-opacity="0.3"/>
<path d="M218.35 144.759L224.983 152.242L232.466 145.608L225.833 138.125L218.35 144.759Z" fill="#5D780F" stroke="black" stroke-opacity="0.3"/>
<path d="M211.716 137.275L218.35 144.759L225.833 138.125L219.2 130.642L211.716 137.275Z" fill="#668115" stroke="black" stroke-opacity="0.3"/>
<path d="M205.083 129.792L211.716 137.275L219.2 130.642L212.566 123.159L205.083 129.792Z" fill="#68851A" stroke="black" stroke-opacity="0.3"/>
<path d="M198.45 122.309L205.083 129.792L212.566 123.159L205.933 115.676L198.45 122.309Z" fill="#648316" stroke="black" stroke-opacity="0.3"/>
<path d="M191.816 114.826L198.45 122.309L205.933 115.676L199.3 108.192L191.816 114.826Z" fill="#608214" stroke="black" stroke-opacity="0.3"/>
<path d="M185.183 107.342L191.816 114.826L199.3 108.192L192.666 100.709L185.183 107.342Z" fill="#80993A" stroke="black" stroke-opacity="0.3"/>
<path d="M178.55 99.8591L185.183 107.342L192.666 100.709L186.033 93.2258L178.55 99.8591Z" fill="#7D9F24" stroke="black" stroke-opacity="0.3"/>
<path d="M171.916 92.3759L178.55 99.8591L186.033 93.2258L179.399 85.7425L171.916 92.3759Z" fill="#3A5704" stroke="black" stroke-opacity="0.3"/>
<path d="M165.283 84.8926L171.916 92.3759L179.4 85.7425L172.766 78.2593L165.283 84.8926Z" fill="#A2BA60" stroke="black" stroke-opacity="0.3"/>
<path d="M158.65 77.4094L165.283 84.8926L172.766 78.2593L166.133 70.7761L158.65 77.4094Z" fill="#48240A" stroke="black" stroke-opacity="0.3"/>
<path d="M298.8 220.441L305.433 227.924L312.916 221.291L306.283 213.808L298.8 220.441Z" fill="#48240A" stroke="black" stroke-opacity="0.3"/>
<path d="M292.166 212.958L298.8 220.441L306.283 213.808L299.649 206.324L292.166 212.958Z" fill="#97AF60" stroke="black" stroke-opacity="0.3"/>
<path d="M285.533 205.474L292.166 212.958L299.65 206.324L293.016 198.841L285.533 205.474Z" fill="#96B151" stroke="black" stroke-opacity="0.3"/>
<path d="M278.9 197.991L285.533 205.474L293.016 198.841L286.383 191.358L278.9 197.991Z" fill="#8FAE44" stroke="black" stroke-opacity="0.3"/>
<path d="M272.266 190.508L278.899 197.991L286.383 191.358L279.749 183.875L272.266 190.508Z" fill="#7E9C34" stroke="black" stroke-opacity="0.3"/>
<path d="M265.633 183.025L272.266 190.508L279.749 183.875L273.116 176.391L265.633 183.025Z" fill="#718F28" stroke="black" stroke-opacity="0.3"/>
<path d="M258.999 175.541L265.633 183.025L273.116 176.391L266.483 168.908L258.999 175.541Z" fill="#6F8D24" stroke="black" stroke-opacity="0.3"/>
<path d="M252.366 168.058L259 175.541L266.483 168.908L259.849 161.425L252.366 168.058Z" fill="#6D8A24" stroke="black" stroke-opacity="0.3"/>
<path d="M245.733 160.575L252.366 168.058L259.849 161.425L253.216 153.942L245.733 160.575Z" fill="#749023" stroke="black" stroke-opacity="0.3"/>
<path d="M239.1 153.092L245.733 160.575L253.216 153.942L246.583 146.458L239.1 153.092Z" fill="#71891B" stroke="black" stroke-opacity="0.3"/>
<path d="M232.466 145.608L239.1 153.092L246.583 146.458L239.95 138.975L232.466 145.608Z" fill="#A7B457" stroke="black" stroke-opacity="0.3"/>
<path d="M225.833 138.125L232.466 145.608L239.95 138.975L233.316 131.492L225.833 138.125Z" fill="#5F7C13" stroke="black" stroke-opacity="0.3"/>
<path d="M219.199 130.642L225.833 138.125L233.316 131.492L226.683 124.009L219.199 130.642Z" fill="#6B861D" stroke="black" stroke-opacity="0.3"/>
<path d="M212.566 123.159L219.199 130.642L226.683 124.009L220.049 116.525L212.566 123.159Z" fill="#6F8B23" stroke="black" stroke-opacity="0.3"/>
<path d="M205.933 115.676L212.566 123.159L220.049 116.525L213.416 109.042L205.933 115.676Z" fill="#6C8A21" stroke="black" stroke-opacity="0.3"/>
<path d="M199.3 108.192L205.933 115.676L213.416 109.042L206.783 101.559L199.3 108.192Z" fill="#68891D" stroke="black" stroke-opacity="0.3"/>
<path d="M192.666 100.709L199.3 108.192L206.783 101.559L200.149 94.0757L192.666 100.709Z" fill="#728E29" stroke="black" stroke-opacity="0.3"/>
<path d="M186.033 93.2258L192.666 100.709L200.15 94.0757L193.516 86.5925L186.033 93.2258Z" fill="#718F24" stroke="black" stroke-opacity="0.3"/>
<path d="M179.4 85.7425L186.033 93.2258L193.516 86.5925L186.883 79.1092L179.4 85.7425Z" fill="#839F34" stroke="black" stroke-opacity="0.3"/>
<path d="M172.766 78.2593L179.4 85.7425L186.883 79.1092L180.25 71.626L172.766 78.2593Z" fill="#9BB74C" stroke="black" stroke-opacity="0.3"/>
<path d="M166.133 70.7761L172.766 78.2593L180.249 71.626L173.616 64.1427L166.133 70.7761Z" fill="#48240A" stroke="black" stroke-opacity="0.3"/>
<path d="M299.649 206.324L306.283 213.808L313.766 207.174L307.133 199.691L299.649 206.324Z" fill="#48240A" stroke="black" stroke-opacity="0.3"/>
<path d="M293.016 198.841L299.649 206.324L307.133 199.691L300.499 192.208L293.016 198.841Z" fill="#9FBF4D" stroke="black" stroke-opacity="0.3"/>
<path d="M286.383 191.358L293.016 198.841L300.499 192.208L293.866 184.724L286.383 191.358Z" fill="#A2BF58" stroke="black" stroke-opacity="0.3"/>
<path d="M279.749 183.875L286.383 191.358L293.866 184.725L287.233 177.241L279.749 183.875Z" fill="#8CAA47" stroke="black" stroke-opacity="0.3"/>
<path d="M273.116 176.391L279.75 183.875L287.233 177.241L280.599 169.758L273.116 176.391Z" fill="#76942A" stroke="black" stroke-opacity="0.3"/>
<path d="M266.483 168.908L273.116 176.391L280.599 169.758L273.966 162.275L266.483 168.908Z" fill="#6C891B" stroke="black" stroke-opacity="0.3"/>
<path d="M259.85 161.425L266.483 168.908L273.966 162.275L267.333 154.792L259.85 161.425Z" fill="#68861D" stroke="black" stroke-opacity="0.3"/>
<path d="M253.216 153.942L259.849 161.425L267.333 154.792L260.699 147.308L253.216 153.942Z" fill="#5E7917" stroke="black" stroke-opacity="0.3"/>
<path d="M246.583 146.458L253.216 153.942L260.699 147.308L254.066 139.825L246.583 146.458Z" fill="#6E881C" stroke="black" stroke-opacity="0.3"/>
<path d="M239.949 138.975L246.583 146.458L254.066 139.825L247.433 132.342L239.949 138.975Z" fill="#A3B356" stroke="black" stroke-opacity="0.3"/>
<path d="M233.316 131.492L239.949 138.975L247.433 132.342L240.799 124.859L233.316 131.492Z" fill="#617D14" stroke="black" stroke-opacity="0.3"/>
<path d="M226.683 124.009L233.316 131.492L240.799 124.859L234.166 117.375L226.683 124.009Z" fill="#68851E" stroke="black" stroke-opacity="0.3"/>
<path d="M220.05 116.525L226.683 124.009L234.166 117.375L227.533 109.892L220.05 116.525Z" fill="#6D8A23" stroke="black" stroke-opacity="0.3"/>
<path d="M213.416 109.042L220.05 116.525L227.533 109.892L220.899 102.409L213.416 109.042Z" fill="#7A9633" stroke="black" stroke-opacity="0.3"/>
<path d="M206.783 101.559L213.416 109.042L220.899 102.409L214.266 94.9256L206.783 101.559Z" fill="#728F29" stroke="black" stroke-opacity="0.3"/>
<path d="M200.149 94.0757L206.783 101.559L214.266 94.9256L207.633 87.4424L200.149 94.0757Z" fill="#718D29" stroke="black" stroke-opacity="0.3"/>
<path d="M193.516 86.5925L200.149 94.0757L207.633 87.4424L200.999 79.9591L193.516 86.5925Z" fill="#769429" stroke="black" stroke-opacity="0.3"/>
<path d="M186.883 79.1092L193.516 86.5925L200.999 79.9591L194.366 72.4759L186.883 79.1092Z" fill="#86A433" stroke="black" stroke-opacity="0.3"/>
<path d="M180.249 71.626L186.883 79.1092L194.366 72.4759L187.733 64.9926L180.249 71.626Z" fill="#ADCC62" stroke="black" stroke-opacity="0.3"/>
<path d="M173.616 64.1427L180.25 71.626L187.733 64.9926L181.099 57.5094L173.616 64.1427Z" fill="#48240A" stroke="black" stroke-opacity="0.3"/>
<path d="M307.133 199.691L313.766 207.174L321.249 200.541L314.616 193.058L307.133 199.691Z" fill="#48240A" stroke="black" stroke-opacity="0.3"/>
<path d="M300.499 192.208L307.133 199.691L314.616 193.058L307.983 185.574L300.499 192.208Z" fill="#48240A" stroke="black" stroke-opacity="0.3"/>
<path d="M293.866 184.724L300.499 192.208L307.983 185.574L301.349 178.091L293.866 184.724Z" fill="#96B151" stroke="black" stroke-opacity="0.3"/>
<path d="M287.233 177.241L293.866 184.725L301.349 178.091L294.716 170.608L287.233 177.241Z" fill="#92AD4D" stroke="black" stroke-opacity="0.3"/>
<path d="M280.599 169.758L287.233 177.241L294.716 170.608L288.083 163.125L280.599 169.758Z" fill="#90AA48" stroke="black" stroke-opacity="0.3"/>
<path d="M273.966 162.275L280.599 169.758L288.083 163.125L281.449 155.641L273.966 162.275Z" fill="#7A9830" stroke="black" stroke-opacity="0.3"/>
<path d="M267.333 154.792L273.966 162.275L281.449 155.641L274.816 148.158L267.333 154.792Z" fill="#6D8B25" stroke="black" stroke-opacity="0.3"/>
<path d="M260.699 147.308L267.333 154.792L274.816 148.158L268.183 140.675L260.699 147.308Z" fill="#5F7A14" stroke="black" stroke-opacity="0.3"/>
<path d="M254.066 139.825L260.699 147.308L268.182 140.675L261.549 133.192L254.066 139.825Z" fill="#668119" stroke="black" stroke-opacity="0.3"/>
<path d="M247.433 132.342L254.066 139.825L261.549 133.192L254.916 125.708L247.433 132.342Z" fill="#A9BA61" stroke="black" stroke-opacity="0.3"/>
<path d="M240.799 124.859L247.433 132.342L254.916 125.708L248.283 118.225L240.799 124.859Z" fill="#688419" stroke="black" stroke-opacity="0.3"/>
<path d="M234.166 117.375L240.799 124.859L248.283 118.225L241.649 110.742L234.166 117.375Z" fill="#748F2E" stroke="black" stroke-opacity="0.3"/>
<path d="M227.533 109.892L234.166 117.375L241.649 110.742L235.016 103.259L227.533 109.892Z" fill="#779233" stroke="black" stroke-opacity="0.3"/>
<path d="M220.899 102.409L227.533 109.892L235.016 103.259L228.383 95.7755L220.899 102.409Z" fill="#718C25" stroke="black" stroke-opacity="0.3"/>
<path d="M214.266 94.9256L220.899 102.409L228.383 95.7755L221.749 88.2923L214.266 94.9256Z" fill="#708C26" stroke="black" stroke-opacity="0.3"/>
<path d="M207.633 87.4424L214.266 94.9256L221.749 88.2923L215.116 80.809L207.633 87.4424Z" fill="#708D24" stroke="black" stroke-opacity="0.3"/>
<path d="M200.999 79.9591L207.633 87.4424L215.116 80.809L208.483 73.3258L200.999 79.9591Z" fill="#819F33" stroke="black" stroke-opacity="0.3"/>
<path d="M194.366 72.4759L200.999 79.9591L208.483 73.3258L201.849 65.8425L194.366 72.4759Z" fill="#85A42F" stroke="black" stroke-opacity="0.3"/>
<path d="M187.733 64.9926L194.366 72.4759L201.849 65.8426L195.216 58.3593L187.733 64.9926Z" fill="#48240A" stroke="black" stroke-opacity="0.3"/>
<path d="M294.716 170.608L301.349 178.091L308.833 171.458L302.199 163.975L294.716 170.608Z" fill="#48240A" stroke="black" stroke-opacity="0.3"/>
<path d="M288.082 163.125L294.716 170.608L302.199 163.975L295.566 156.491L288.082 163.125Z" fill="#A2BB5D" stroke="black" stroke-opacity="0.3"/>
<path d="M281.449 155.641L288.083 163.125L295.566 156.491L288.932 149.008L281.449 155.641Z" fill="#839F3C" stroke="black" stroke-opacity="0.3"/>
<path d="M274.816 148.158L281.449 155.641L288.932 149.008L282.299 141.525L274.816 148.158Z" fill="#738F2A" stroke="black" stroke-opacity="0.3"/>
<path d="M268.183 140.675L274.816 148.158L282.299 141.525L275.666 134.042L268.183 140.675Z" fill="#6F891F" stroke="black" stroke-opacity="0.3"/>
<path d="M261.549 133.192L268.183 140.675L275.666 134.042L269.033 126.558L261.549 133.192Z" fill="#648016" stroke="black" stroke-opacity="0.3"/>
<path d="M254.916 125.708L261.549 133.192L269.033 126.558L262.399 119.075L254.916 125.708Z" fill="#9AAA54" stroke="black" stroke-opacity="0.3"/>
<path d="M248.283 118.225L254.916 125.708L262.399 119.075L255.766 111.592L248.283 118.225Z" fill="#647E1D" stroke="black" stroke-opacity="0.3"/>
<path d="M241.649 110.742L248.283 118.225L255.766 111.592L249.133 104.109L241.649 110.742Z" fill="#748F2E" stroke="black" stroke-opacity="0.3"/>
<path d="M235.016 103.259L241.649 110.742L249.132 104.109L242.499 96.6254L235.016 103.259Z" fill="#7B9636" stroke="black" stroke-opacity="0.3"/>
<path d="M228.383 95.7755L235.016 103.259L242.499 96.6254L235.866 89.1422L228.383 95.7755Z" fill="#809B31" stroke="black" stroke-opacity="0.3"/>
<path d="M221.749 88.2923L228.383 95.7755L235.866 89.1422L229.232 81.6589L221.749 88.2923Z" fill="#819D35" stroke="black" stroke-opacity="0.3"/>
<path d="M215.116 80.809L221.749 88.2923L229.233 81.6589L222.599 74.1757L215.116 80.809Z" fill="#87A345" stroke="black" stroke-opacity="0.3"/>
<path d="M208.483 73.3258L215.116 80.809L222.599 74.1757L215.966 66.6925L208.483 73.3258Z" fill="#8DA73D" stroke="black" stroke-opacity="0.3"/>
<path d="M201.849 65.8425L208.483 73.3258L215.966 66.6925L209.333 59.2092L201.849 65.8425Z" fill="#AAAA55" stroke="black" stroke-opacity="0.3"/>
<path d="M195.216 58.3593L201.849 65.8425L209.333 59.2092L202.699 51.726L195.216 58.3593Z" fill="#48240A" stroke="black" stroke-opacity="0.3"/>
<path d="M295.566 156.491L302.199 163.975L309.682 157.341L303.049 149.858L295.566 156.491Z" fill="#48240A" stroke="black" stroke-opacity="0.3"/>
<path d="M288.933 149.008L295.566 156.491L303.049 149.858L296.416 142.375L288.933 149.008Z" fill="#48240A" stroke="black" stroke-opacity="0.3"/>
<path d="M282.299 141.525L288.933 149.008L296.416 142.375L289.783 134.892L282.299 141.525Z" fill="#788F28" stroke="black" stroke-opacity="0.3"/>
<path d="M275.666 134.042L282.299 141.525L289.782 134.892L283.149 127.408L275.666 134.042Z" fill="#648419" stroke="black" stroke-opacity="0.3"/>
<path d="M269.032 126.558L275.666 134.042L283.149 127.408L276.516 119.925L269.032 126.558Z" fill="#658319" stroke="black" stroke-opacity="0.3"/>
<path d="M262.399 119.075L269.032 126.558L276.516 119.925L269.882 112.442L262.399 119.075Z" fill="#A3B456" stroke="black" stroke-opacity="0.3"/>
<path d="M255.766 111.592L262.399 119.075L269.882 112.442L263.249 104.959L255.766 111.592Z" fill="#5B7814" stroke="black" stroke-opacity="0.3"/>
<path d="M249.133 104.109L255.766 111.592L263.249 104.959L256.616 97.4753L249.133 104.109Z" fill="#698423" stroke="black" stroke-opacity="0.3"/>
<path d="M242.499 96.6254L249.133 104.109L256.616 97.4753L249.982 89.9921L242.499 96.6254Z" fill="#7A953C" stroke="black" stroke-opacity="0.3"/>
<path d="M235.866 89.1422L242.499 96.6254L249.983 89.9921L243.349 82.5088L235.866 89.1422Z" fill="#A3B867" stroke="black" stroke-opacity="0.3"/>
<path d="M229.232 81.6589L235.866 89.1422L243.349 82.5088L236.716 75.0256L229.232 81.6589Z" fill="#86A13C" stroke="black" stroke-opacity="0.3"/>
<path d="M222.599 74.1757L229.232 81.6589L236.716 75.0256L230.082 67.5424L222.599 74.1757Z" fill="#9DB162" stroke="black" stroke-opacity="0.3"/>
<path d="M215.966 66.6925L222.599 74.1757L230.082 67.5424L223.449 60.0591L215.966 66.6925Z" fill="#96B151" stroke="black" stroke-opacity="0.3"/>
<path d="M209.332 59.2092L215.966 66.6925L223.449 60.0591L216.816 52.5759L209.332 59.2092Z" fill="#48240A" stroke="black" stroke-opacity="0.3"/>
<path d="M303.049 149.858L309.682 157.341L317.166 150.708L310.532 143.225L303.049 149.858Z" fill="#48240A" stroke="black" stroke-opacity="0.3"/>
<path d="M296.416 142.375L303.049 149.858L310.532 143.225L303.899 135.741L296.416 142.375Z" fill="#91A842" stroke="black" stroke-opacity="0.3"/>
<path d="M289.782 134.892L296.416 142.375L303.899 135.741L297.266 128.258L289.782 134.892Z" fill="#779932" stroke="black" stroke-opacity="0.3"/>
<path d="M283.149 127.408L289.782 134.892L297.266 128.258L290.632 120.775L283.149 127.408Z" fill="#72912C" stroke="black" stroke-opacity="0.3"/>
<path d="M276.516 119.925L283.149 127.408L290.632 120.775L283.999 113.292L276.516 119.925Z" fill="#6F8A1E" stroke="black" stroke-opacity="0.3"/>
<path d="M269.882 112.442L276.516 119.925L283.999 113.292L277.366 105.808L269.882 112.442Z" fill="#A3B456" stroke="black" stroke-opacity="0.3"/>
<path d="M263.249 104.959L269.882 112.442L277.366 105.808L270.732 98.3252L263.249 104.959Z" fill="#55710F" stroke="black" stroke-opacity="0.3"/>
<path d="M256.616 97.4753L263.249 104.959L270.732 98.3252L264.099 90.842L256.616 97.4753Z" fill="#53700B" stroke="black" stroke-opacity="0.3"/>
<path d="M249.982 89.9921L256.616 97.4753L264.099 90.842L257.466 83.3588L249.982 89.9921Z" fill="#4E6B07" stroke="black" stroke-opacity="0.3"/>
<path d="M243.349 82.5088L249.982 89.9921L257.466 83.3588L250.832 75.8755L243.349 82.5088Z" fill="#96B151" stroke="black" stroke-opacity="0.3"/>
<path d="M236.716 75.0256L243.349 82.5089L250.832 75.8755L244.199 68.3923L236.716 75.0256Z" fill="#48240A" stroke="black" stroke-opacity="0.3"/>
<path d="M230.082 67.5424L236.716 75.0256L244.199 68.3923L237.566 60.909L230.082 67.5424Z" fill="#48240A" stroke="black" stroke-opacity="0.3"/>
<path d="M310.532 143.225L317.166 150.708L324.649 144.075L318.015 136.591L310.532 143.225Z" fill="#48240A" stroke="black" stroke-opacity="0.3"/>
<path d="M303.899 135.741L310.532 143.225L318.015 136.591L311.382 129.108L303.899 135.741Z" fill="#91A842" stroke="black" stroke-opacity="0.3"/>
<path d="M297.266 128.258L303.899 135.741L311.382 129.108L304.749 121.625L297.266 128.258Z" fill="#729133" stroke="black" stroke-opacity="0.3"/>
<path d="M290.632 120.775L297.266 128.258L304.749 121.625L298.116 114.142L290.632 120.775Z" fill="#698524" stroke="black" stroke-opacity="0.3"/>
<path d="M283.999 113.292L290.632 120.775L298.116 114.142L291.482 106.658L283.999 113.292Z" fill="#6D8721" stroke="black" stroke-opacity="0.3"/>
<path d="M277.366 105.808L283.999 113.292L291.482 106.658L284.849 99.1751L277.366 105.808Z" fill="#A3B456" stroke="black" stroke-opacity="0.3"/>
<path d="M270.732 98.3252L277.366 105.808L284.849 99.1751L278.216 91.6919L270.732 98.3252Z" fill="#56750E" stroke="black" stroke-opacity="0.3"/>
<path d="M264.099 90.842L270.732 98.3252L278.216 91.6919L271.582 84.2087L264.099 90.842Z" fill="#577610" stroke="black" stroke-opacity="0.3"/>
<path d="M257.466 83.3588L264.099 90.842L271.582 84.2087L264.949 76.7254L257.466 83.3588Z" fill="#4E6D0B" stroke="black" stroke-opacity="0.3"/>
<path d="M250.832 75.8755L257.466 83.3588L264.949 76.7254L258.315 69.2422L250.832 75.8755Z" fill="#648219" stroke="black" stroke-opacity="0.3"/>
<path d="M244.199 68.3923L250.832 75.8755L258.316 69.2422L251.682 61.7589L244.199 68.3923Z" fill="#3A5704" stroke="black" stroke-opacity="0.3"/>
<path d="M318.016 136.591L324.649 144.075L332.132 137.441L325.499 129.958L318.016 136.591Z" fill="#48240A" stroke="black" stroke-opacity="0.3"/>
<path d="M311.382 129.108L318.016 136.591L325.499 129.958L318.866 122.475L311.382 129.108Z" fill="#91A842" stroke="black" stroke-opacity="0.3"/>
<path d="M304.749 121.625L311.382 129.108L318.866 122.475L312.232 114.992L304.749 121.625Z" fill="#3A5704" stroke="black" stroke-opacity="0.3"/>
<path d="M298.116 114.142L304.749 121.625L312.232 114.992L305.599 107.508L298.116 114.142Z" fill="#56770F" stroke="black" stroke-opacity="0.3"/>
<path d="M291.482 106.658L298.115 114.142L305.599 107.508L298.965 100.025L291.482 106.658Z" fill="#5C7811" stroke="black" stroke-opacity="0.3"/>
<path d="M284.849 99.1751L291.482 106.658L298.965 100.025L292.332 92.5418L284.849 99.1751Z" fill="#A3B456" stroke="black" stroke-opacity="0.3"/>
<path d="M278.216 91.6919L284.849 99.1751L292.332 92.5418L285.699 85.0586L278.216 91.6919Z" fill="#5E7C18" stroke="black" stroke-opacity="0.3"/>
<path d="M271.582 84.2087L278.216 91.6919L285.699 85.0586L279.065 77.5753L271.582 84.2087Z" fill="#668224" stroke="black" stroke-opacity="0.3"/>
<path d="M264.949 76.7254L271.582 84.2087L279.066 77.5753L272.432 70.0921L264.949 76.7254Z" fill="#6D8C2D" stroke="black" stroke-opacity="0.3"/>
<path d="M258.316 69.2422L264.949 76.7254L272.432 70.0921L265.799 62.6089L258.316 69.2422Z" fill="#76953A" stroke="black" stroke-opacity="0.3"/>
<path d="M251.682 61.7589L258.315 69.2422L265.799 62.6088L259.165 55.1256L251.682 61.7589Z" fill="#48240A" stroke="black" stroke-opacity="0.3"/>
<path d="M318.865 122.475L325.499 129.958L332.982 123.325L326.349 115.841L318.865 122.475Z" fill="#48240A" stroke="black" stroke-opacity="0.3"/>
<path d="M312.232 114.992L318.865 122.475L326.349 115.841L319.715 108.358L312.232 114.992Z" fill="#91A842" stroke="black" stroke-opacity="0.3"/>
<path d="M305.599 107.508L312.232 114.992L319.715 108.358L313.082 100.875L305.599 107.508Z" fill="#3A5704" stroke="black" stroke-opacity="0.3"/>
<path d="M298.966 100.025L305.599 107.508L313.082 100.875L306.449 93.3917L298.966 100.025Z" fill="#5C7C12" stroke="black" stroke-opacity="0.3"/>
<path d="M292.332 92.5418L298.965 100.025L306.449 93.3917L299.815 85.9085L292.332 92.5418Z" fill="#A3B456" stroke="black" stroke-opacity="0.3"/>
<path d="M285.699 85.0586L292.332 92.5418L299.815 85.9085L293.182 78.4252L285.699 85.0586Z" fill="#63801A" stroke="black" stroke-opacity="0.3"/>
<path d="M279.065 77.5753L285.699 85.0586L293.182 78.4252L286.549 70.942L279.065 77.5753Z" fill="#668420" stroke="black" stroke-opacity="0.3"/>
<path d="M272.432 70.0921L279.065 77.5753L286.549 70.942L279.915 63.4588L272.432 70.0921Z" fill="#809D3A" stroke="black" stroke-opacity="0.3"/>
<path d="M265.799 62.6089L272.432 70.0921L279.915 63.4588L273.282 55.9755L265.799 62.6089Z" fill="#9DB856" stroke="black" stroke-opacity="0.3"/>
<path d="M259.165 55.1256L265.799 62.6088L273.282 55.9755L266.649 48.4923L259.165 55.1256Z" fill="#48240A" stroke="black" stroke-opacity="0.3"/>
<path d="M319.715 108.358L326.349 115.841L333.832 109.208L327.199 101.725L319.715 108.358Z" fill="#48240A" stroke="black" stroke-opacity="0.3"/>
<path d="M313.082 100.875L319.715 108.358L327.199 101.725L320.565 94.2416L313.082 100.875Z" fill="#809B33" stroke="black" stroke-opacity="0.3"/>
<path d="M306.449 93.3917L313.082 100.875L320.565 94.2416L313.932 86.7584L306.449 93.3917Z" fill="#618118" stroke="black" stroke-opacity="0.3"/>
<path d="M299.815 85.9085L306.449 93.3917L313.932 86.7584L307.299 79.2752L299.815 85.9085Z" fill="#A3B456" stroke="black" stroke-opacity="0.3"/>
<path d="M293.182 78.4252L299.815 85.9085L307.299 79.2751L300.665 71.7919L293.182 78.4252Z" fill="#65811A" stroke="black" stroke-opacity="0.3"/>
<path d="M286.549 70.942L293.182 78.4252L300.665 71.7919L294.032 64.3087L286.549 70.942Z" fill="#77922F" stroke="black" stroke-opacity="0.3"/>
<path d="M279.915 63.4588L286.549 70.942L294.032 64.3087L287.399 56.8254L279.915 63.4588Z" fill="#88A243" stroke="black" stroke-opacity="0.3"/>
<path d="M273.282 55.9755L279.915 63.4588L287.399 56.8254L280.765 49.3422L273.282 55.9755Z" fill="#48240A" stroke="black" stroke-opacity="0.3"/>
<path d="M320.565 94.2416L327.199 101.725L334.682 95.0915L328.049 87.6083L320.565 94.2416Z" fill="#48240A" stroke="black" stroke-opacity="0.3"/>
<path d="M313.932 86.7584L320.565 94.2416L328.048 87.6083L321.415 80.1251L313.932 86.7584Z" fill="#7F9C35" stroke="black" stroke-opacity="0.3"/>
<path d="M307.299 79.2752L313.932 86.7584L321.415 80.1251L314.782 72.6418L307.299 79.2752Z" fill="#A3B456" stroke="black" stroke-opacity="0.3"/>
<path d="M300.665 71.7919L307.299 79.2751L314.782 72.6418L308.148 65.1586L300.665 71.7919Z" fill="#728D27" stroke="black" stroke-opacity="0.3"/>
<path d="M294.032 64.3087L300.665 71.7919L308.149 65.1586L301.515 57.6753L294.032 64.3087Z" fill="#97B151" stroke="black" stroke-opacity="0.3"/>
<path d="M287.399 56.8254L294.032 64.3087L301.515 57.6753L294.882 50.1921L287.399 56.8254Z" fill="#3A5704" stroke="black" stroke-opacity="0.3"/>
<path d="M280.765 49.3422L287.399 56.8254L294.882 50.1921L288.249 42.7089L280.765 49.3422Z" fill="#48240A" stroke="black" stroke-opacity="0.3"/>
<path d="M328.049 87.6083L334.682 95.0915L342.165 88.4582L335.532 80.975L328.049 87.6083Z" fill="#48240A" stroke="black" stroke-opacity="0.3"/>
<path d="M321.415 80.1251L328.049 87.6083L335.532 80.975L328.898 73.4917L321.415 80.1251Z" fill="#728D27" stroke="black" stroke-opacity="0.3"/>
<path d="M314.782 72.6418L321.415 80.1251L328.899 73.4917L322.265 66.0085L314.782 72.6418Z" fill="#A3B456" stroke="black" stroke-opacity="0.3"/>
<path d="M308.148 65.1586L314.782 72.6418L322.265 66.0085L315.632 58.5252L308.148 65.1586Z" fill="#738F25" stroke="black" stroke-opacity="0.3"/>
<path d="M301.515 57.6753L308.148 65.1586L315.632 58.5252L308.998 51.042L301.515 57.6753Z" fill="#728D27" stroke="black" stroke-opacity="0.3"/>
<path d="M294.882 50.1921L301.515 57.6753L308.998 51.042L302.365 43.5588L294.882 50.1921Z" fill="#48240A" stroke="black" stroke-opacity="0.3"/>
<path d="M328.898 73.4917L335.532 80.975L343.015 74.3416L336.382 66.8584L328.898 73.4917Z" fill="#48240A" stroke="black" stroke-opacity="0.3"/>
<path d="M322.265 66.0085L328.898 73.4917L336.382 66.8584L329.748 59.3751L322.265 66.0085Z" fill="#A3B456" stroke="black" stroke-opacity="0.3"/>
<path d="M315.632 58.5252L322.265 66.0085L329.748 59.3752L323.115 51.8919L315.632 58.5252Z" fill="#48240A" stroke="black" stroke-opacity="0.3"/>
<path d="M308.999 51.042L315.632 58.5252L323.115 51.8919L316.482 44.4087L308.999 51.042Z" fill="#48240A" stroke="black" stroke-opacity="0.3"/>
<path d="M329.748 59.3751L336.382 66.8584L343.865 60.2251L337.232 52.7418L329.748 59.3751Z" fill="#A3B456" stroke="black" stroke-opacity="0.3"/>
</g>
<defs>
<clipPath id="clip0_45_1208">
<rect width="400" height="400" fill="white"/>
</clipPath>
</defs>
</svg>
